<svg width="18" height="19" viewBox="0 0 18 19" fill="none" xmlns="http://www.w3.org/2000/svg">
<path d="M4.34238 6.78447C4.41113 6.71572 4.49707 6.68135 4.6002 6.68135C4.70332 6.68135 4.78926 6.71572 4.85801 6.78447L9.0002 10.9267L13.1424 6.78447C13.2111 6.71572 13.2971 6.68135 13.4002 6.68135C13.5033 6.68135 13.5893 6.71572 13.658 6.78447L13.9158 7.04228C13.9846 7.11103 14.0189 7.19697 14.0189 7.3001C14.0189 7.40322 13.9846 7.48916 13.9158 7.55791L9.25801 12.2157C9.18926 12.2845 9.10332 12.3188 9.0002 12.3188C8.89707 12.3188 8.81113 12.2845 8.74238 12.2157L4.08457 7.55791C4.01582 7.48916 3.98145 7.40322 3.98145 7.3001C3.98145 7.19697 4.01582 7.11103 4.08457 7.04228L4.34238 6.78447Z" fill="white"/>
</svg>
