<svg width="30" height="31" viewBox="0 0 30 31" fill="none" xmlns="http://www.w3.org/2000/svg">
<path d="M23.1152 15.2847C23.1152 14.0737 22.8906 12.9312 22.4414 11.8569C21.9727 10.8022 21.3428 9.87939 20.5518 9.08838C19.7607 8.29736 18.8379 7.66748 17.7832 7.19873C16.7285 6.74951 15.5957 6.5249 14.3848 6.5249C13.1738 6.5249 12.0312 6.74951 10.957 7.19873C9.90234 7.66748 8.97949 8.29736 8.18848 9.08838C7.39746 9.87939 6.76758 10.8022 6.29883 11.8569C5.84961 12.9312 5.625 14.0737 5.625 15.2847C5.625 16.4956 5.84961 17.6284 6.29883 18.6831C6.76758 19.7378 7.39746 20.6606 8.18848 21.4517C8.97949 22.2427 9.90234 22.8726 10.957 23.3413C12.0312 23.7905 13.1738 24.0151 14.3848 24.0151C15.5957 24.0151 16.7285 23.7905 17.7832 23.3413C18.8379 22.8726 19.7607 22.2427 20.5518 21.4517C21.3428 20.6606 21.9727 19.7378 22.4414 18.6831C22.8906 17.6284 23.1152 16.4956 23.1152 15.2847ZM21.1816 23.4292C20.2637 24.1909 19.2236 24.7915 18.0615 25.231C16.8994 25.6704 15.6738 25.8901 14.3848 25.8901C12.9199 25.8901 11.543 25.6167 10.2539 25.0698C8.94531 24.5034 7.8125 23.7417 6.85547 22.7847C5.89844 21.8276 5.14648 20.7046 4.59961 19.4155C4.0332 18.1265 3.75 16.7495 3.75 15.2847C3.75 13.8198 4.0332 12.4331 4.59961 11.1245C5.14648 9.83545 5.89844 8.7124 6.85547 7.75537C7.8125 6.79834 8.94531 6.03662 10.2539 5.47021C11.543 4.92334 12.9199 4.6499 14.3848 4.6499C15.8496 4.6499 17.2266 4.92334 18.5156 5.47021C19.8047 6.03662 20.9277 6.79834 21.8848 7.75537C22.8418 8.7124 23.6035 9.83545 24.1699 11.1245C24.7168 12.4331 24.9902 13.8198 24.9902 15.2847C24.9902 16.5737 24.7705 17.7993 24.3311 18.9614C23.8916 20.1235 23.291 21.1636 22.5293 22.0815L26.4844 26.0366C26.6016 26.1733 26.6602 26.3247 26.6602 26.4907C26.6602 26.6567 26.6016 26.7983 26.4844 26.9155L26.0156 27.3843C25.8984 27.5015 25.7568 27.5601 25.5908 27.5601C25.4248 27.5601 25.2734 27.5015 25.1367 27.3843L21.1816 23.4292Z" fill="white"/>
</svg>
