<svg width="14" height="14" viewBox="0 0 14 14" fill="none" xmlns="http://www.w3.org/2000/svg">
<path d="M3.04687 1.76349C3.04687 2.13849 2.91796 2.45782 2.66015 2.7215C2.40234 2.98517 2.0901 3.117 1.72343 3.117C1.35676 3.117 1.04453 2.98517 0.786713 2.7215C0.5289 2.45782 0.399994 2.13849 0.399994 1.76349C0.399994 1.38849 0.5289 1.06915 0.786713 0.805481C1.04453 0.541809 1.35676 0.409973 1.72343 0.409973C2.0901 0.409973 2.40234 0.541809 2.66015 0.805481C2.91796 1.06915 3.04687 1.38849 3.04687 1.76349ZM3.04687 7.15997C3.04687 7.53497 2.91796 7.85431 2.66015 8.11798C2.40234 8.38165 2.0901 8.51349 1.72343 8.51349C1.35676 8.51349 1.04453 8.38165 0.786713 8.11798C0.5289 7.85431 0.399994 7.53497 0.399994 7.15997C0.399994 6.78497 0.5289 6.46564 0.786713 6.20197C1.04453 5.93829 1.35676 5.80646 1.72343 5.80646C2.0901 5.80646 2.40234 5.93829 2.66015 6.20197C2.91796 6.46564 3.04687 6.78497 3.04687 7.15997ZM1.72343 13.91C2.0901 13.91 2.40234 13.7781 2.66015 13.5145C2.91796 13.2508 3.04687 12.9315 3.04687 12.5565C3.04687 12.1815 2.91796 11.8621 2.66015 11.5984C2.40234 11.3348 2.0901 11.2029 1.72343 11.2029C1.35676 11.2029 1.04453 11.3348 0.786713 11.5984C0.5289 11.8621 0.399994 12.1815 0.399994 12.5565C0.399994 12.9315 0.5289 13.2508 0.786713 13.5145C1.04453 13.7781 1.35676 13.91 1.72343 13.91ZM8.32343 1.76349C8.32343 2.13849 8.19453 2.45782 7.93671 2.7215C7.6789 2.98517 7.36666 3.117 6.99999 3.117C6.63333 3.117 6.32109 2.98517 6.06328 2.7215C5.80546 2.45782 5.67656 2.13849 5.67656 1.76349C5.67656 1.38849 5.80546 1.06915 6.06328 0.805481C6.32109 0.541809 6.63333 0.409973 6.99999 0.409973C7.36666 0.409973 7.6789 0.541809 7.93671 0.805481C8.19453 1.06915 8.32343 1.38849 8.32343 1.76349ZM6.99999 8.51349C7.36666 8.51349 7.6789 8.38165 7.93671 8.11798C8.19453 7.85431 8.32343 7.53497 8.32343 7.15997C8.32343 6.78497 8.19453 6.46564 7.93671 6.20197C7.6789 5.93829 7.36666 5.80646 6.99999 5.80646C6.63333 5.80646 6.32109 5.93829 6.06328 6.20197C5.80546 6.46564 5.67656 6.78497 5.67656 7.15997C5.67656 7.53497 5.80546 7.85431 6.06328 8.11798C6.32109 8.38165 6.63333 8.51349 6.99999 8.51349ZM8.32343 12.5565C8.32343 12.9315 8.19453 13.2508 7.93671 13.5145C7.6789 13.7781 7.36666 13.91 6.99999 13.91C6.63333 13.91 6.32109 13.7781 6.06328 13.5145C5.80546 13.2508 5.67656 12.9315 5.67656 12.5565C5.67656 12.1815 5.80546 11.8621 6.06328 11.5984C6.32109 11.3348 6.63333 11.2029 6.99999 11.2029C7.36666 11.2029 7.6789 11.3348 7.93671 11.5984C8.19453 11.8621 8.32343 12.1815 8.32343 12.5565ZM12.2766 3.117C12.6432 3.117 12.9555 2.98517 13.2133 2.7215C13.4711 2.45782 13.6 2.13849 13.6 1.76349C13.6 1.38849 13.4711 1.06915 13.2133 0.805481C12.9555 0.541809 12.6432 0.409973 12.2766 0.409973C11.9099 0.409973 11.5977 0.541809 11.3398 0.805481C11.082 1.06915 10.9531 1.38849 10.9531 1.76349C10.9531 2.13849 11.082 2.45782 11.3398 2.7215C11.5977 2.98517 11.9099 3.117 12.2766 3.117ZM13.6 7.15997C13.6 7.53497 13.4711 7.85431 13.2133 8.11798C12.9555 8.38165 12.6432 8.51349 12.2766 8.51349C11.9099 8.51349 11.5977 8.38165 11.3398 8.11798C11.082 7.85431 10.9531 7.53497 10.9531 7.15997C10.9531 6.78497 11.082 6.46564 11.3398 6.20197C11.5977 5.93829 11.9099 5.80646 12.2766 5.80646C12.6432 5.80646 12.9555 5.93829 13.2133 6.20197C13.4711 6.46564 13.6 6.78497 13.6 7.15997ZM12.2766 13.91C12.6432 13.91 12.9555 13.7781 13.2133 13.5145C13.4711 13.2508 13.6 12.9315 13.6 12.5565C13.6 12.1815 13.4711 11.8621 13.2133 11.5984C12.9555 11.3348 12.6432 11.2029 12.2766 11.2029C11.9099 11.2029 11.5977 11.3348 11.3398 11.5984C11.082 11.8621 10.9531 12.1815 10.9531 12.5565C10.9531 12.9315 11.082 13.2508 11.3398 13.5145C11.5977 13.7781 11.9099 13.91 12.2766 13.91Z" fill="white"/>
</svg>
