<svg width="17" height="17" viewBox="0 0 17 17" fill="none" xmlns="http://www.w3.org/2000/svg">
<path d="M8.19995 1.92786C9.09058 1.92786 9.93433 2.09192 10.7312 2.42004C11.5125 2.76379 12.2 3.23254 12.7937 3.82629C13.3875 4.42004 13.8562 5.10754 14.2 5.88879C14.5281 6.68567 14.6921 7.52942 14.6921 8.42004C14.6921 9.31067 14.5281 10.1544 14.2 10.9513C13.8562 11.7325 13.3875 12.42 12.7937 13.0138C12.2 13.6075 11.5125 14.0763 10.7312 14.42C9.93433 14.7482 9.09058 14.9122 8.19995 14.9122C7.30933 14.9122 6.46558 14.7482 5.6687 14.42C4.88745 14.0763 4.19995 13.6075 3.6062 13.0138C3.01245 12.42 2.5437 11.7325 2.19995 10.9513C1.87183 10.1544 1.70776 9.31067 1.70776 8.42004C1.70776 7.52942 1.87183 6.68567 2.19995 5.88879C2.5437 5.10754 3.01245 4.42004 3.6062 3.82629C4.19995 3.23254 4.88745 2.76379 5.6687 2.42004C6.46558 2.09192 7.30933 1.92786 8.19995 1.92786ZM8.19995 0.427856C7.09058 0.427856 6.05151 0.630981 5.08276 1.03723C4.11401 1.45911 3.26636 2.03333 2.53979 2.75989C1.81323 3.48645 1.23901 4.33411 0.817139 5.30286C0.410889 6.27161 0.207764 7.31067 0.207764 8.42004C0.207764 9.52942 0.410889 10.5685 0.817139 11.5372C1.23901 12.506 1.81323 13.3536 2.53979 14.0802C3.26636 14.8068 4.11401 15.381 5.08276 15.8029C6.05151 16.2091 7.09058 16.4122 8.19995 16.4122C9.30933 16.4122 10.3484 16.2091 11.3171 15.8029C12.2859 15.381 13.1335 14.8068 13.8601 14.0802C14.5867 13.3536 15.1609 12.506 15.5828 11.5372C15.989 10.5685 16.1921 9.52942 16.1921 8.42004C16.1921 7.31067 15.989 6.27161 15.5828 5.30286C15.1609 4.33411 14.5867 3.48645 13.8601 2.75989C13.1335 2.03333 12.2859 1.45911 11.3171 1.03723C10.3484 0.630981 9.30933 0.427856 8.19995 0.427856ZM8.36401 7.08411H7.87183C7.7312 7.08411 7.61011 7.13489 7.50854 7.23645C7.40698 7.33801 7.3562 7.45129 7.3562 7.57629V11.9122C7.3562 12.0529 7.40698 12.174 7.50854 12.2755C7.61011 12.3771 7.7312 12.4279 7.87183 12.4279H8.36401C8.50464 12.4279 8.62183 12.3771 8.71558 12.2755C8.80933 12.174 8.8562 12.0529 8.8562 11.9122V7.57629C8.8562 7.45129 8.80933 7.33801 8.71558 7.23645C8.62183 7.13489 8.50464 7.08411 8.36401 7.08411ZM8.8562 4.92786V5.25598C8.8562 5.39661 8.80933 5.51379 8.71558 5.60754C8.62183 5.70129 8.50464 5.74817 8.36401 5.74817H7.87183C7.7312 5.74817 7.61011 5.70129 7.50854 5.60754C7.40698 5.51379 7.3562 5.39661 7.3562 5.25598V4.92786C7.3562 4.78723 7.40698 4.66614 7.50854 4.56458C7.61011 4.46301 7.7312 4.41223 7.87183 4.41223H8.36401C8.50464 4.41223 8.62183 4.46301 8.71558 4.56458C8.80933 4.66614 8.8562 4.78723 8.8562 4.92786Z" fill="white"/>
</svg>
