<svg width="68" height="31" viewBox="0 0 68 31" fill="none" xmlns="http://www.w3.org/2000/svg">
<g clip-path="url(#clip0_3105_5361)">
<path d="M19.0143 30.7772L21.0462 22.5731H17.7977L18.2304 20.7154H26.9689L26.5432 22.5731H23.7058L21.6739 30.7772H19.0143Z" fill="white"/>
<path d="M25.1241 30.7772L27.5817 20.7154H34.6373L34.1105 22.5599H29.9028L29.3734 24.7547H33.4931L33.0743 26.5132H28.9615L28.3977 28.9328H32.8075L32.1796 30.7772H25.1241Z" fill="white"/>
<path d="M40.8193 30.6289C40.6857 30.6598 40.4992 30.6906 40.2598 30.7215C40.0249 30.7524 39.7693 30.781 39.493 30.8074C39.2213 30.8339 38.9449 30.8559 38.664 30.8736C38.3877 30.8912 38.139 30.9 37.918 30.9C37.287 30.9 36.7252 30.8405 36.2324 30.7215C35.7397 30.6025 35.3229 30.4108 34.9821 30.1464C34.6413 29.8819 34.3811 29.5381 34.2015 29.1151C34.0219 28.6875 33.9321 28.1675 33.9321 27.5549C33.9321 27.3169 33.9436 27.0679 33.9666 26.8078C33.9897 26.5478 34.0288 26.2724 34.0841 25.9815L34.312 24.8312C34.487 23.9277 34.7334 23.1895 35.0512 22.6165C35.3735 22.0392 35.765 21.5874 36.2255 21.2613C36.6861 20.9307 37.218 20.7038 37.8213 20.5804C38.4292 20.457 39.1084 20.3953 39.8591 20.3953C40.0801 20.3953 40.3265 20.4041 40.5982 20.4217C40.87 20.4393 41.1371 20.4614 41.3996 20.4878C41.6667 20.5143 41.9108 20.5451 42.1318 20.5804C42.3575 20.6112 42.7346 20.741 42.8589 20.7762L42.4332 22.4777C42.2582 22.4645 41.966 22.4513 41.7588 22.438C41.5515 22.4248 41.3351 22.4116 41.1094 22.3984C40.8884 22.3851 40.6627 22.3763 40.4325 22.3719C40.2068 22.3631 39.9857 22.3587 39.7693 22.3587C39.3778 22.3587 39.0301 22.3962 38.7262 22.4711C38.4269 22.546 38.162 22.6848 37.9318 22.8876C37.7061 23.0859 37.5127 23.3614 37.3515 23.7139C37.1949 24.0621 37.0637 24.5117 36.9578 25.0626L36.7298 26.2129C36.6469 26.6624 36.6055 27.037 36.6055 27.3367C36.6055 27.654 36.6469 27.9163 36.7298 28.1234C36.8127 28.3261 36.9347 28.487 37.0959 28.606C37.2617 28.725 37.4643 28.8087 37.7038 28.8572C37.9479 28.9013 38.2265 28.9233 38.5397 28.9233C38.7561 28.9233 38.9795 28.9211 39.2097 28.9167C39.44 28.9079 39.668 28.8991 39.8936 28.8903C40.1193 28.8815 40.338 28.8704 40.5499 28.8572C40.7617 28.8396 41.1573 28.8242 41.3323 28.8109L40.8193 30.6289Z" fill="white"/>
<path d="M48.1997 30.7772L49.0814 26.5396H45.029L43.9521 30.7772H41.4947L43.7502 20.7154H46.2077L45.3675 24.6159H49.5209L50.5563 20.7154H53L50.6434 30.7772H48.1997Z" fill="white"/>
<path d="M1.13474 4.41392C0.898745 7.40445 3.78965 8.87764 5.26461 9.24041C4.35997 8.93758 3.47827 7.44231 3.15051 6.73253C4.34686 7.42653 7.57537 8.80508 10.9186 8.76723C14.2618 8.72937 15.7204 10.2341 16.0318 10.9912L10.132 11.5117L13.2294 11.7956L14.606 12.742L17.6051 12.1742C22.9542 12.3634 24.7504 16.2278 24.9798 18.1363L22.5216 17.2846C18.195 16.0732 12.9835 18.0101 10.9186 19.13L12.9835 17.2846C5.11711 19.0638 1.08557 24.2404 0.0531033 26.6063C-0.37955 29.8619 1.93777 30.8019 3.15051 30.865H15.7368C17.0741 30.865 17.5395 30.0764 17.6051 29.6821L18.2934 27.0322C19.0013 24.9123 17.4739 24.6663 16.6217 24.8082C14.9174 24.7767 11.0071 24.7325 9.00115 24.8082C6.99522 24.8839 6.42818 24.0827 6.3954 23.6726C6.31674 21.7798 8.09979 20.9912 9.00115 20.8335L8.70616 22.0638C12.1281 18.5433 16.294 17.7893 17.9492 17.8524C17.9492 17.8524 24.3079 18.0259 25.7665 18.7988C25.0978 13.1205 20.2764 11.2278 17.9492 10.9912C16.2579 8.94704 12.9508 8.27827 11.5086 8.1994C10.7219 7.3666 11.6069 7.1584 12.1477 7.1584H19.5717C20.791 7.1584 21.1286 6.71675 21.1449 6.49593L22.8166 2.0953C23.5245 0.997511 22.7182 0.849247 22.2266 0.912339H3.69132C2.93746 0.833475 1.37073 1.42338 1.13474 4.41392Z" fill="white"/>
<path d="M5.65795 9.71365C1.9214 9.71365 0.397286 7.06381 0.102295 5.73889V8.62533C1.83291 10.0638 4.52716 9.95025 5.65795 9.71365Z" fill="white"/>
<path d="M7.91955 13.2152C3.67168 12.9124 0.938102 14.0354 0.102295 14.6348V17.9944C0.102295 15.1553 5.3138 13.6253 7.91955 13.2152Z" fill="white"/>
</g>
<defs>
<clipPath id="clip0_3105_5361">
<rect width="68" height="30" fill="white" transform="translate(0 0.900024)"/>
</clipPath>
</defs>
</svg>
