<svg width="19" height="17" viewBox="0 0 19 17" fill="none" xmlns="http://www.w3.org/2000/svg">
<path d="M7.5193 9.70551C6.65081 9.70551 5.89088 9.98252 5.23952 10.5366C4.58815 11.0906 4.16514 11.7719 3.97047 12.5805H1.27516C1.1404 12.5805 1.02809 12.6254 0.938248 12.7153C0.848404 12.8051 0.803482 12.9249 0.803482 13.0746V13.5463C0.803482 13.6811 0.848404 13.7934 0.938248 13.8832C1.02809 13.9731 1.1404 14.018 1.27516 14.018H3.97047C4.10524 14.8416 4.51328 15.5266 5.1946 16.0732C5.87591 16.6197 6.65081 16.893 7.5193 16.893C8.52256 16.893 9.37982 16.5374 10.0911 15.8261C10.8023 15.1148 11.158 14.2576 11.158 13.2543C11.158 12.2511 10.8023 11.4088 10.0911 10.7275C9.37982 10.0462 8.52256 9.70551 7.5193 9.70551ZM7.5193 15.4555C6.93532 15.4555 6.43743 15.2496 6.02565 14.8378C5.61387 14.426 5.40797 13.9282 5.40797 13.3442C5.40797 12.7752 5.61387 12.281 6.02565 11.8618C6.43743 11.4425 6.93532 11.2328 7.5193 11.2328C8.08831 11.2328 8.58245 11.4425 9.00172 11.8618C9.42099 12.281 9.63063 12.7752 9.63063 13.3442C9.63063 13.9282 9.42099 14.426 9.00172 14.8378C8.58245 15.2496 8.08831 15.4555 7.5193 15.4555ZM1.27516 4.53949H5.11598C5.26572 4.53949 5.38177 4.47959 5.46413 4.3598C5.54648 4.24001 5.58766 4.10524 5.58766 3.95551V3.57367C5.58766 3.4389 5.54648 3.3266 5.46413 3.23676C5.38177 3.14691 5.26572 3.10199 5.11598 3.10199H1.27516C1.1404 3.05707 1.02809 3.09076 0.938248 3.20306C0.848404 3.31537 0.803482 3.4389 0.803482 3.57367V4.04535C0.803482 4.15017 0.848404 4.25873 0.938248 4.37103C1.02809 4.48334 1.1404 4.53949 1.27516 4.53949ZM17.5818 12.5805H13.741C13.5912 12.5805 13.4752 12.6254 13.3928 12.7153C13.3105 12.8051 13.2693 12.9249 13.2693 13.0746V13.5463C13.2693 13.6811 13.3105 13.7934 13.3928 13.8832C13.4752 13.9731 13.5912 14.018 13.741 14.018H17.5818C17.7166 14.018 17.8289 13.9731 17.9187 13.8832C18.0086 13.7934 18.0535 13.6811 18.0535 13.5463V13.0746C18.0535 12.9698 18.0086 12.8613 17.9187 12.749C17.8289 12.6367 17.7166 12.5805 17.5818 12.5805ZM17.5818 3.01215H14.8865C14.7517 2.18858 14.3437 1.50352 13.6624 0.95697C12.9811 0.410421 12.2062 0.137146 11.3377 0.137146C10.3344 0.137146 9.47715 0.489035 8.76588 1.19281C8.05462 1.89659 7.69899 2.75759 7.69899 3.77582C7.69899 4.77907 8.05462 5.63633 8.76588 6.3476C9.47715 7.05886 10.3344 7.41449 11.3377 7.41449C12.2062 7.41449 12.9661 7.13747 13.6174 6.58344C14.2688 6.0294 14.6918 5.34808 14.8865 4.53949H17.5818C17.7166 4.53949 17.8289 4.49457 17.9187 4.40472C18.0086 4.31488 18.0535 4.19509 18.0535 4.04535V3.57367C18.0535 3.4389 18.0086 3.31163 17.9187 3.19183C17.8289 3.07204 17.7166 3.01215 17.5818 3.01215ZM11.3377 5.88715C10.7687 5.88715 10.2745 5.67751 9.85524 5.25824C9.43597 4.83897 9.22633 4.34483 9.22633 3.77582C9.22633 3.19183 9.43597 2.69395 9.85524 2.28217C10.2745 1.87038 10.7687 1.66449 11.3377 1.66449C11.9216 1.66449 12.4195 1.87038 12.8313 2.28217C13.2431 2.69395 13.449 3.19183 13.449 3.77582C13.449 4.34483 13.2431 4.83897 12.8313 5.25824C12.4195 5.67751 11.9216 5.88715 11.3377 5.88715Z" fill="white"/>
</svg>
