<svg width="24" height="25" viewBox="0 0 24 25" fill="none" xmlns="http://www.w3.org/2000/svg">
<path d="M8.19191 2.02582V3.50824C8.19191 4.28689 8.46893 4.95323 9.02296 5.50726C9.577 6.0613 10.2433 6.33832 11.022 6.33832H11.7857C12.0702 6.33832 12.3247 6.42816 12.5493 6.60785C12.7739 6.78754 12.9087 7.01215 12.9536 7.28168H8.91066C7.6828 7.28168 6.72072 7.30414 6.02443 7.34906C5.32814 7.39398 4.75539 7.5587 4.30617 7.8432C4.03664 7.99294 3.78957 8.18011 3.56496 8.40472C3.34035 8.62933 3.14569 8.8764 2.98097 9.14594C2.71144 9.61013 2.55421 10.1866 2.50929 10.8754C2.46437 11.5642 2.44191 12.5226 2.44191 13.7504C2.44191 14.9933 2.46437 15.9591 2.50929 16.6479C2.55421 17.3367 2.71144 17.9057 2.98097 18.3549C3.14569 18.6245 3.34035 18.8715 3.56496 19.0961C3.78957 19.3207 4.03664 19.5154 4.30617 19.6801C4.75539 19.9496 5.32814 20.1069 6.02443 20.1518C6.72072 20.1967 7.6828 20.2192 8.91066 20.2192H14.6607C15.8885 20.2192 16.8506 20.1967 17.5469 20.1518C18.2432 20.1069 18.8159 19.9496 19.2652 19.6801C19.5347 19.5154 19.7818 19.3207 20.0064 19.0961C20.231 18.8715 20.4256 18.6245 20.5903 18.3549C20.8599 17.9057 21.0171 17.3367 21.062 16.6479C21.1069 15.9591 21.1294 14.9933 21.1294 13.7504C21.1294 12.5226 21.1069 11.5642 21.062 10.8754C21.0171 10.1866 20.8599 9.61013 20.5903 9.14594C20.4256 8.8764 20.231 8.62933 20.0064 8.40472C19.7818 8.18011 19.5347 7.99294 19.2652 7.8432C18.8159 7.5587 18.2432 7.39398 17.5469 7.34906C16.8506 7.30414 15.8885 7.28168 14.6607 7.28168H14.4136C14.3537 6.60785 14.0729 6.04258 13.5713 5.58588C13.0697 5.12917 12.4745 4.90082 11.7857 4.90082H11.022C10.6327 4.90082 10.3032 4.76231 10.0337 4.48529C9.76418 4.20827 9.62941 3.88259 9.62941 3.50824V2.02582C9.62941 1.89105 9.58449 1.775 9.49464 1.67767C9.4048 1.58034 9.2925 1.53168 9.15773 1.53168H8.66359C8.52882 1.53168 8.41652 1.58034 8.32668 1.67767C8.23683 1.775 8.19191 1.89105 8.19191 2.02582ZM6.14796 8.78656C6.47739 8.75661 6.86297 8.7379 7.3047 8.73041C7.74643 8.72292 8.28175 8.71918 8.91066 8.71918H14.6607C15.2896 8.71918 15.8249 8.72292 16.2666 8.73041C16.7083 8.7379 17.0939 8.75661 17.4234 8.78656C17.7228 8.81651 17.9587 8.85769 18.1309 8.9101C18.3031 8.9625 18.4341 9.01866 18.5239 9.07855C18.6887 9.1684 18.8421 9.28444 18.9844 9.4267C19.1266 9.56895 19.2502 9.72243 19.355 9.88715C19.4149 9.99196 19.4673 10.1267 19.5122 10.2914C19.5571 10.4562 19.5946 10.6957 19.6245 11.0102C19.6545 11.3246 19.6732 11.7027 19.6807 12.1445C19.6882 12.5862 19.6919 13.1215 19.6919 13.7504C19.6919 14.3793 19.6882 14.9147 19.6807 15.3564C19.6732 15.7981 19.6545 16.1837 19.6245 16.5131C19.5946 16.8276 19.5571 17.0672 19.5122 17.2319C19.4673 17.3966 19.4149 17.5314 19.355 17.6362C19.2502 17.8009 19.1266 17.9506 18.9844 18.0854C18.8421 18.2202 18.6887 18.3399 18.5239 18.4448C18.4341 18.5047 18.3031 18.5608 18.1309 18.6132C17.9587 18.6656 17.7228 18.7068 17.4234 18.7368C17.0939 18.7667 16.7083 18.7817 16.2666 18.7817C15.8249 18.7817 15.2896 18.7817 14.6607 18.7817H8.91066C8.28175 18.7817 7.74643 18.7817 7.3047 18.7817C6.86297 18.7817 6.47739 18.7667 6.14796 18.7368C5.84849 18.7068 5.61265 18.6656 5.44044 18.6132C5.26824 18.5608 5.13722 18.5047 5.04738 18.4448C4.88266 18.3399 4.72918 18.2202 4.58693 18.0854C4.44468 17.9506 4.32114 17.8009 4.21632 17.6362C4.15643 17.5314 4.10402 17.3966 4.0591 17.2319C4.01418 17.0672 3.97674 16.8276 3.94679 16.5131C3.91684 16.1837 3.89813 15.7981 3.89064 15.3564C3.88315 14.9147 3.87941 14.3793 3.87941 13.7504C3.87941 13.1215 3.88315 12.5862 3.89064 12.1445C3.89813 11.7027 3.91684 11.3246 3.94679 11.0102C3.97674 10.6957 4.01418 10.4562 4.0591 10.2914C4.10402 10.1267 4.15643 9.99196 4.21632 9.88715C4.32114 9.72243 4.44468 9.56895 4.58693 9.4267C4.72918 9.28444 4.88266 9.1684 5.04738 9.07855C5.13722 9.01866 5.26824 8.9625 5.44044 8.9101C5.61265 8.85769 5.84849 8.81651 6.14796 8.78656ZM7.22609 15.9067C7.22609 16.0414 7.27476 16.1575 7.37209 16.2548C7.46942 16.3522 7.58546 16.4008 7.72023 16.4008H8.19191C8.32668 16.4008 8.43898 16.3522 8.52882 16.2548C8.61867 16.1575 8.66359 16.0414 8.66359 15.9067V14.4692H10.1011C10.2359 14.4692 10.3519 14.4243 10.4492 14.3344C10.5466 14.2446 10.5952 14.1323 10.5952 13.9975V13.5258C10.5952 13.3911 10.5466 13.275 10.4492 13.1777C10.3519 13.0803 10.2359 13.0317 10.1011 13.0317H8.66359V11.5942C8.66359 11.4594 8.61867 11.3471 8.52882 11.2573C8.43898 11.1674 8.32668 11.1225 8.19191 11.1225H7.72023C7.58546 11.1225 7.46942 11.1674 7.37209 11.2573C7.27476 11.3471 7.22609 11.4594 7.22609 11.5942V13.0317H5.78859C5.65382 13.0317 5.54152 13.0803 5.45168 13.1777C5.36183 13.275 5.31691 13.3911 5.31691 13.5258V13.9975C5.31691 14.1323 5.36183 14.2446 5.45168 14.3344C5.54152 14.4243 5.65382 14.4692 5.78859 14.4692H7.22609V15.9067ZM12.7515 14.7162C12.7515 14.4467 12.8451 14.2184 13.0322 14.0312C13.2194 13.844 13.4403 13.7504 13.6948 13.7504C13.9644 13.7504 14.1927 13.844 14.3799 14.0312C14.5671 14.2184 14.6607 14.4467 14.6607 14.7162C14.6607 14.9858 14.5671 15.2141 14.3799 15.4013C14.1927 15.5885 13.9644 15.6821 13.6948 15.6821C13.4403 15.6821 13.2194 15.5885 13.0322 15.4013C12.8451 15.2141 12.7515 14.9858 12.7515 14.7162ZM16.5698 11.8412C16.3153 11.8412 16.0944 11.9348 15.9072 12.122C15.7201 12.3092 15.6265 12.5375 15.6265 12.8071C15.6265 13.0616 15.7201 13.2825 15.9072 13.4697C16.0944 13.6568 16.3153 13.7504 16.5698 13.7504C16.8394 13.7504 17.0677 13.6568 17.2549 13.4697C17.4421 13.2825 17.5357 13.0616 17.5357 12.8071C17.5357 12.5375 17.4421 12.3092 17.2549 12.122C17.0677 11.9348 16.8394 11.8412 16.5698 11.8412Z" fill="white"/>
</svg>
