<svg width="42" height="43" viewBox="0 0 42 43" fill="none" xmlns="http://www.w3.org/2000/svg">
<path d="M26.4449 5.20903C26.577 6.93454 26.0313 8.6436 24.9238 9.97331C24.3933 10.6329 23.7202 11.1636 22.9549 11.5255C22.1897 11.8873 21.3524 12.0707 20.506 12.062C20.452 11.2323 20.5621 10.4 20.8299 9.61274C21.0977 8.82553 21.5181 8.09882 22.067 7.47417C23.1895 6.19552 24.7527 5.38677 26.4449 5.20903Z" fill="white"/>
<path d="M29.5316 17.7677C28.9693 18.7586 28.6667 19.8755 28.652 21.0147C28.6534 22.2961 29.0319 23.5489 29.7405 24.6166C30.449 25.6843 31.4562 26.5199 32.6364 27.019C32.1724 28.5264 31.473 29.951 30.564 31.2399C29.3432 33.066 28.0633 34.8499 26.0319 34.8828C25.0658 34.9052 24.4136 34.6274 23.734 34.3379C23.0252 34.0359 22.2865 33.7213 21.1307 33.7213C19.9048 33.7213 19.1331 34.046 18.3888 34.3593C17.7456 34.63 17.1229 34.892 16.2453 34.9285C14.3106 35.0001 12.8321 32.9795 11.5671 31.1705C9.0385 27.4764 7.06961 20.7598 9.70916 16.1897C10.3185 15.0946 11.2012 14.1762 12.2711 13.5236C13.3409 12.8712 14.5616 12.507 15.8141 12.4665C16.9114 12.444 17.9643 12.8668 18.8873 13.2377C19.5933 13.5212 20.2233 13.7742 20.7392 13.7742C21.1927 13.7742 21.8053 13.5312 22.519 13.2479C23.6433 12.8016 25.0191 12.2556 26.4211 12.4028C27.4955 12.4364 28.5472 12.7201 29.4929 13.2313C30.4384 13.7425 31.2519 14.4672 31.8685 15.3477C30.8979 15.9444 30.094 16.7769 29.5316 17.7677Z" fill="white"/>
</svg>
