<svg width="42" height="43" viewBox="0 0 42 43" fill="none" xmlns="http://www.w3.org/2000/svg">
<g clip-path="url(#clip0_4688_605)">
<path d="M7.22676 30.3318C6.12643 30.3318 4.995 31.2128 4.995 32.7549C4.995 34.1647 5.98979 35.1605 7.22676 35.1605C8.2478 35.1605 8.70286 34.4757 8.70286 34.4757V34.7742C8.70286 34.9153 8.83636 35.0727 9.00161 35.0727H9.73967V30.4371H8.70286V31.0254C8.70286 31.0254 8.24399 30.3318 7.22676 30.3318ZM7.41144 31.2797C8.31723 31.2797 8.79238 32.0757 8.79238 32.7546C8.79238 33.5108 8.22824 34.229 7.41336 34.229C6.73217 34.229 6.04982 33.6777 6.04982 32.7446C6.04982 31.9023 6.63703 31.2797 7.41144 31.2797Z" fill="white"/>
<path d="M11.1805 35.0722C11.0212 35.0722 10.8817 34.958 10.8817 34.7737V30.4366H11.9185V31.0102C12.1535 30.6574 12.6124 30.3298 13.317 30.3298C14.4685 30.3298 15.0816 31.247 15.0816 32.1047V35.0722H14.3611C14.1722 35.0722 14.0448 34.9141 14.0448 34.7561V32.333C14.0448 31.8576 13.7533 31.2802 13.0791 31.2802C12.3517 31.2802 11.9185 31.9671 11.9185 32.6139V35.0722H11.1805Z" fill="white"/>
<path d="M18.1047 30.3313C17.0043 30.3313 15.8729 31.2124 15.8729 32.7545C15.8729 34.1643 16.8677 35.1601 18.1047 35.1601C19.1257 35.1601 19.5808 34.4753 19.5808 34.4753V34.7738C19.5808 34.9148 19.7143 35.0723 19.8795 35.0723H20.6176V28.1189H19.5808V31.0249C19.5808 31.0249 19.1219 30.3313 18.1047 30.3313ZM18.2894 31.2792C19.1952 31.2792 19.6703 32.0752 19.6703 32.7541C19.6703 33.5104 19.1062 34.2285 18.2913 34.2285C17.6101 34.2285 16.9277 33.6773 16.9277 32.7442C16.9277 31.9018 17.5149 31.2792 18.2894 31.2792Z" fill="white"/>
<path d="M22.0584 35.0728C21.8991 35.0728 21.7596 34.9586 21.7596 34.7743V30.4372H22.7964V31.2098C22.9749 30.777 23.36 30.3845 24.0441 30.3845C24.2348 30.3845 24.4131 30.4196 24.4131 30.4196V31.4907C24.4131 31.4907 24.1905 31.4029 23.9211 31.4029C23.1936 31.4029 22.7964 32.0899 22.7964 32.7367V35.0728H22.0584Z" fill="white"/>
<path d="M30.7039 35.0748C30.5446 35.0748 30.4052 34.9606 30.4052 34.7763V30.4392H31.442V35.0748H30.7039Z" fill="white"/>
<path d="M34.4826 30.3313C33.3823 30.3313 32.2509 31.2124 32.2509 32.7545C32.2509 34.1643 33.2456 35.1601 34.4826 35.1601C35.5037 35.1601 35.9587 34.4753 35.9587 34.4753V34.7738C35.9587 34.9148 36.0922 35.0723 36.2575 35.0723H36.9955V28.1189H35.9587V31.0249C35.9587 31.0249 35.4998 30.3313 34.4826 30.3313ZM34.6673 31.2792C35.5731 31.2792 36.0482 32.0752 36.0482 32.7541C36.0482 33.5104 35.4841 34.2285 34.6692 34.2285C33.988 34.2285 33.3057 33.6773 33.3057 32.7442C33.3057 31.9018 33.8929 31.2792 34.6673 31.2792Z" fill="white"/>
<path d="M30.9169 29.4381C31.2955 29.4381 31.6024 29.1314 31.6024 28.7531C31.6024 28.3748 31.2955 28.0681 30.9169 28.0681C30.5383 28.0681 30.2313 28.3748 30.2313 28.7531C30.2313 29.1314 30.5383 29.4381 30.9169 29.4381Z" fill="white"/>
<path d="M27.1477 30.3298C25.9954 30.3298 24.7294 31.1893 24.7294 32.7463C24.7294 34.1651 25.8077 35.1603 27.1452 35.1603C28.7935 35.1603 29.5984 33.8362 29.5984 32.7553C29.5984 31.4288 28.562 30.3298 27.1477 30.3298ZM27.1515 31.2973C27.9484 31.2973 28.5428 31.939 28.5428 32.7492C28.5428 33.5734 27.9118 34.2094 27.1539 34.2094C26.4503 34.2094 25.7664 33.6373 25.7664 32.7631C25.7664 31.8742 26.4169 31.2973 27.1515 31.2973Z" fill="white"/>
<path d="M28.8044 12.5587L31.4572 7.96706C31.6068 7.70965 31.5163 7.38267 31.2622 7.23309C31.0081 7.08351 30.6773 7.17047 30.5311 7.42789L27.8436 12.0787C25.7931 11.1429 23.4851 10.6211 21.0029 10.6211C18.5208 10.6211 16.2127 11.1429 14.1623 12.0787L11.4748 7.42789C11.3251 7.17047 10.9978 7.08351 10.7402 7.23309C10.4826 7.38267 10.3956 7.70965 10.5453 7.96706L13.198 12.5587C8.6236 15.0354 5.52528 19.6618 5.01354 25.0778H36.9924C36.4806 19.6618 33.3822 15.0354 28.8044 12.5587ZM13.661 20.5906C12.9195 20.5906 12.3207 19.9888 12.3207 19.2514C12.3207 18.5104 12.923 17.9121 13.661 17.9121C14.4025 17.9121 15.0013 18.5139 15.0013 19.2514C15.0048 19.9888 14.4025 20.5906 13.661 20.5906ZM28.3415 20.5906C27.6 20.5906 27.0012 19.9888 27.0012 19.2514C27.0012 18.5104 27.6034 17.9121 28.3415 17.9121C29.083 17.9121 29.6817 18.5139 29.6817 19.2514C29.6852 19.9888 29.083 20.5906 28.3415 20.5906Z" fill="#3DDC84"/>
</g>
<defs>
<clipPath id="clip0_4688_605">
<rect width="42" height="42" fill="white" transform="translate(-0.00500488 0.159912)"/>
</clipPath>
</defs>
</svg>
