<svg width="30" height="31" viewBox="0 0 30 31" fill="none" xmlns="http://www.w3.org/2000/svg">
<g clip-path="url(#clip0_3105_5583)">
<g clip-path="url(#clip1_3105_5583)">
<path d="M15 26.4099C21.2132 26.4099 26.25 21.3731 26.25 15.1599C26.25 8.94671 21.2132 3.90991 15 3.90991C8.7868 3.90991 3.75 8.94671 3.75 15.1599C3.75 21.3731 8.7868 26.4099 15 26.4099Z" fill="url(#paint0_linear_3105_5583)"/>
<path fill-rule="evenodd" clip-rule="evenodd" d="M8.85616 15.0313C12.1238 13.5984 14.3028 12.6537 15.393 12.1973C18.5059 10.8941 19.1528 10.6678 19.5743 10.6603C19.6671 10.6586 19.8744 10.6817 20.0087 10.7914C20.1221 10.884 20.1533 11.0091 20.1682 11.097C20.1831 11.1848 20.2018 11.3848 20.187 11.5411C20.0183 13.3251 19.2884 17.6543 18.9171 19.6523C18.7599 20.4978 18.4505 20.7812 18.151 20.809C17.5001 20.8693 17.0058 20.376 16.3753 19.96C15.3888 19.3091 14.8314 18.904 13.8738 18.2688C12.7671 17.5348 13.4846 17.1313 14.1152 16.472C14.2803 16.2994 17.1484 13.6738 17.2039 13.4356C17.2108 13.4058 17.2172 13.2947 17.1517 13.2361C17.0861 13.1775 16.9894 13.1975 16.9196 13.2135C16.8207 13.2361 15.2447 14.2845 12.1916 16.3589C11.7442 16.6681 11.339 16.8187 10.9759 16.8108C10.5758 16.8021 9.80587 16.5831 9.23355 16.3958C8.53162 16.1661 7.97369 16.0447 8.02223 15.6546C8.0476 15.4515 8.32551 15.2437 8.85616 15.0313Z" fill="white"/>
</g>
</g>
<defs>
<linearGradient id="paint0_linear_3105_5583" x1="15" y1="3.90991" x2="15" y2="26.2431" gradientUnits="userSpaceOnUse">
<stop stop-color="#2AABEE"/>
<stop offset="1" stop-color="#229ED9"/>
</linearGradient>
<clipPath id="clip0_3105_5583">
<rect width="30" height="30" fill="white" transform="translate(0 0.159912)"/>
</clipPath>
<clipPath id="clip1_3105_5583">
<rect width="30" height="30" fill="white" transform="translate(0 0.159912)"/>
</clipPath>
</defs>
</svg>
