<svg width="30" height="31" viewBox="0 0 30 31" fill="none" xmlns="http://www.w3.org/2000/svg">
<g clip-path="url(#clip0_3105_5586)">
<g clip-path="url(#clip1_3105_5586)">
<path d="M13.125 26.2849C7.81248 25.3474 3.75 20.7224 3.75 15.1599C3.75 8.97241 8.8125 3.90991 15 3.90991C21.1875 3.90991 26.25 8.97241 26.25 15.1599C26.25 20.7224 22.1875 25.3474 16.875 26.2849L16.25 25.7849H13.75L13.125 26.2849Z" fill="#0062E0"/>
<path d="M19.375 18.2848L19.875 15.1598H16.875V12.9723C16.875 12.0973 17.1875 11.4098 18.5625 11.4098H20V8.53482C19.1875 8.40978 18.3125 8.2848 17.5 8.2848C14.9375 8.2848 13.125 9.84732 13.125 12.6598V15.1598H10.3125V18.2848H13.125V26.2223C13.75 26.3473 14.375 26.4098 15 26.4098C15.625 26.4098 16.25 26.3473 16.875 26.2223V18.2848H19.375Z" fill="white"/>
</g>
</g>
<defs>
<clipPath id="clip0_3105_5586">
<rect width="30" height="30" fill="white" transform="translate(0 0.159912)"/>
</clipPath>
<clipPath id="clip1_3105_5586">
<rect width="30" height="30" fill="white" transform="translate(0 0.159912)"/>
</clipPath>
</defs>
</svg>
