<svg width="30" height="31" viewBox="0 0 30 31" fill="none" xmlns="http://www.w3.org/2000/svg">
<g clip-path="url(#clip0_3105_5589)">
<g clip-path="url(#clip1_3105_5589)">
<path d="M4.09094 11.569C4.09094 8.98039 4.09094 7.6861 4.6027 6.70094C5.03395 5.87074 5.71086 5.19383 6.54106 4.76258C7.52622 4.25082 8.82051 4.25082 11.4091 4.25082H18.591C21.1796 4.25082 22.4739 4.25082 23.459 4.76258C24.2892 5.19383 24.9661 5.87074 25.3974 6.70094C25.9091 7.6861 25.9091 8.98039 25.9091 11.569V18.7508C25.9091 21.3394 25.9091 22.6337 25.3974 23.6189C24.9661 24.4491 24.2892 25.126 23.459 25.5572C22.4739 26.069 21.1796 26.069 18.591 26.069H11.4091C8.82051 26.069 7.52622 26.069 6.54106 25.5572C5.71086 25.126 5.03395 24.4491 4.6027 23.6189C4.09094 22.6337 4.09094 21.3394 4.09094 18.7508V11.569Z" fill="url(#paint0_radial_3105_5589)"/>
<path d="M4.09094 11.569C4.09094 8.98039 4.09094 7.6861 4.6027 6.70094C5.03395 5.87074 5.71086 5.19383 6.54106 4.76258C7.52622 4.25082 8.82051 4.25082 11.4091 4.25082H18.591C21.1796 4.25082 22.4739 4.25082 23.459 4.76258C24.2892 5.19383 24.9661 5.87074 25.3974 6.70094C25.9091 7.6861 25.9091 8.98039 25.9091 11.569V18.7508C25.9091 21.3394 25.9091 22.6337 25.3974 23.6189C24.9661 24.4491 24.2892 25.126 23.459 25.5572C22.4739 26.069 21.1796 26.069 18.591 26.069H11.4091C8.82051 26.069 7.52622 26.069 6.54106 25.5572C5.71086 25.126 5.03395 24.4491 4.6027 23.6189C4.09094 22.6337 4.09094 21.3394 4.09094 18.7508V11.569Z" fill="url(#paint1_radial_3105_5589)"/>
<path d="M14.9879 7.22614C12.8332 7.22614 12.5629 7.23555 11.7166 7.27407C10.872 7.31273 10.2955 7.44644 9.79102 7.64267C9.26923 7.8453 8.82659 8.11639 8.38566 8.55753C7.94432 8.99853 7.67323 9.44117 7.46998 9.96282C7.27327 10.4674 7.13936 11.0441 7.10138 11.8884C7.06354 12.7347 7.05359 13.0053 7.05359 15.16C7.05359 17.3147 7.0632 17.5843 7.10152 18.4306C7.14038 19.2752 7.27409 19.8517 7.47011 20.3562C7.67295 20.8781 7.94398 21.3207 8.38511 21.7617C8.82598 22.203 9.26854 22.4747 9.79007 22.6774C10.2948 22.8735 10.8715 23.0073 11.7159 23.046C12.5622 23.0845 12.8324 23.0939 14.9869 23.0939C17.1417 23.0939 17.4113 23.0845 18.2576 23.046C19.1021 23.0073 19.6794 22.8735 20.1841 22.6774C20.7058 22.4747 21.1477 22.203 21.5885 21.7617C22.0299 21.3207 22.3009 20.8781 22.5042 20.3564C22.6993 19.8517 22.8331 19.275 22.8728 18.4307C22.9108 17.5845 22.9207 17.3147 22.9207 15.16C22.9207 13.0053 22.9108 12.7349 22.8728 11.8886C22.8331 11.044 22.6993 10.4674 22.5042 9.96296C22.3009 9.44117 22.0299 8.99853 21.5885 8.55753C21.1472 8.11619 20.7059 7.8451 20.1836 7.64267C19.6779 7.44644 19.101 7.31273 18.2564 7.27407C17.4101 7.23555 17.1407 7.22614 14.9855 7.22614H14.9879ZM14.2762 8.65585C14.4875 8.65557 14.7231 8.65585 14.9879 8.65585C17.1062 8.65585 17.3572 8.66348 18.1937 8.70146C18.9673 8.73685 19.3871 8.86612 19.6667 8.97473C20.037 9.11853 20.301 9.29042 20.5785 9.56812C20.8562 9.84582 21.0281 10.1102 21.1722 10.4805C21.2807 10.7599 21.4102 11.1797 21.4454 11.9533C21.4834 12.7896 21.4917 13.0408 21.4917 15.1582C21.4917 17.2755 21.4834 17.5268 21.4454 18.3632C21.41 19.1367 21.2807 19.5566 21.1722 19.8359C21.0284 20.2061 20.8562 20.4698 20.5785 20.7473C20.3008 21.025 20.0372 21.1969 19.6667 21.3407C19.3874 21.4498 18.9673 21.5787 18.1937 21.6141C17.3574 21.6521 17.1062 21.6604 14.9879 21.6604C12.8694 21.6604 12.6184 21.6521 11.7821 21.6141C11.0085 21.5783 10.5887 21.4491 10.3089 21.3405C9.93863 21.1967 9.67416 21.0248 9.39652 20.7471C9.11882 20.4694 8.94693 20.2056 8.80279 19.8352C8.69418 19.5559 8.56477 19.136 8.52959 18.3625C8.49154 17.5261 8.48398 17.2749 8.48398 15.1562C8.48398 13.0376 8.49154 12.7876 8.52959 11.9513C8.56498 11.1777 8.69418 10.7578 8.80279 10.4782C8.94659 10.1079 9.11882 9.84351 9.39652 9.5658C9.67416 9.2881 9.93863 9.11621 10.3089 8.97207C10.5885 8.86298 11.0085 8.73405 11.7821 8.69853C12.5139 8.66546 12.7976 8.65557 14.2762 8.65387V8.65585ZM19.2228 9.97326C18.6972 9.97326 18.2708 10.3992 18.2708 10.9249C18.2708 11.4506 18.6972 11.877 19.2228 11.877C19.7484 11.877 20.1748 11.4506 20.1748 10.9249C20.1748 10.3993 19.7484 9.97326 19.2228 9.97326ZM14.9879 11.0856C12.7379 11.0856 10.9136 12.9099 10.9136 15.16C10.9136 17.4101 12.7379 19.2336 14.9879 19.2336C17.2379 19.2336 19.0615 17.4101 19.0615 15.16C19.0615 12.9099 17.2379 11.0856 14.9879 11.0856ZM14.9879 12.5153C16.4484 12.5153 17.6325 13.6993 17.6325 15.16C17.6325 16.6205 16.4484 17.8046 14.9879 17.8046C13.5273 17.8046 12.3433 16.6205 12.3433 15.16C12.3433 13.6993 13.5273 12.5153 14.9879 12.5153Z" fill="white"/>
</g>
</g>
<defs>
<radialGradient id="paint0_radial_3105_5589" cx="0" cy="0" r="1" gradientUnits="userSpaceOnUse" gradientTransform="translate(9.8864 27.7495) rotate(-90) scale(21.6235 20.1115)">
<stop stop-color="#FFDD55"/>
<stop offset="0.1" stop-color="#FFDD55"/>
<stop offset="0.5" stop-color="#FF543E"/>
<stop offset="1" stop-color="#C837AB"/>
</radialGradient>
<radialGradient id="paint1_radial_3105_5589" cx="0" cy="0" r="1" gradientUnits="userSpaceOnUse" gradientTransform="translate(0.43628 5.82257) rotate(78.6806) scale(9.6658 39.8427)">
<stop stop-color="#3771C8"/>
<stop offset="0.128" stop-color="#3771C8"/>
<stop offset="1" stop-color="#6600FF" stop-opacity="0"/>
</radialGradient>
<clipPath id="clip0_3105_5589">
<rect width="30" height="30" fill="white" transform="translate(0 0.159912)"/>
</clipPath>
<clipPath id="clip1_3105_5589">
<rect width="30" height="30" fill="white" transform="translate(0 0.159912)"/>
</clipPath>
</defs>
</svg>
