<svg width="30" height="31" viewBox="0 0 30 31" fill="none" xmlns="http://www.w3.org/2000/svg">
<g clip-path="url(#clip0_3105_5592)">
<g clip-path="url(#clip1_3105_5592)">
<path fill-rule="evenodd" clip-rule="evenodd" d="M24.7146 10.2709C24.723 10.4895 24.7258 10.708 24.7258 10.9266C24.7258 17.5544 20.0635 25.2057 11.5378 25.2057C8.91881 25.2057 6.48359 24.3711 4.43176 22.9501C4.79446 22.9898 5.16281 23.0197 5.53681 23.0197C7.70831 23.0197 9.70829 22.2147 11.2947 20.8633C9.26647 20.8335 7.55381 19.3728 6.96315 17.3855C7.24665 17.4451 7.53867 17.475 7.83731 17.475C8.25847 17.475 8.66728 17.4154 9.05919 17.2962C6.93669 16.8391 5.33804 14.8121 5.33804 12.3776C5.33804 12.3478 5.33804 12.3378 5.33804 12.318C5.96358 12.6856 6.67953 12.914 7.43981 12.9438C6.19437 12.0396 5.3757 10.4995 5.3757 8.7605C5.3757 7.84639 5.60368 6.98184 6.005 6.23658C8.29044 9.27718 11.7074 11.2745 15.5595 11.4831C15.4804 11.1155 15.4399 10.7281 15.4399 10.3405C15.4399 7.5682 17.5152 5.32249 20.0757 5.32249C21.4088 5.32249 22.6128 5.92871 23.4578 6.9025C24.5157 6.68389 25.5068 6.26659 26.4037 5.69026C26.056 6.86278 25.3221 7.84632 24.3631 8.46241C25.3014 8.34316 26.1964 8.07507 27.0264 7.67757C26.4037 8.6812 25.6199 9.56539 24.7146 10.2709Z" fill="#1EA1F2"/>
</g>
</g>
<defs>
<clipPath id="clip0_3105_5592">
<rect width="30" height="30" fill="white" transform="translate(0 0.159912)"/>
</clipPath>
<clipPath id="clip1_3105_5592">
<rect width="30" height="30" fill="white" transform="translate(0 0.159912)"/>
</clipPath>
</defs>
</svg>
