<svg width="94" height="27" viewBox="0 0 94 27" fill="none" xmlns="http://www.w3.org/2000/svg">
<g clip-path="url(#clip0_4688_545)">
<mask id="mask0_4688_545" style="mask-type:luminance" maskUnits="userSpaceOnUse" x="0" y="0" width="94" height="27">
<path d="M93.5 0.159973H0.5V26.16H93.5V0.159973Z" fill="white"/>
</mask>
<g mask="url(#mask0_4688_545)">
<path fill-rule="evenodd" clip-rule="evenodd" d="M0.81563 5.91803C0.710674 5.67425 0.60632 5.43187 0.5 5.19256C4.18213 3.22602 8.62602 4.13466 11.0671 7.35415C11.3043 9.11332 10.9681 10.9021 10.1085 12.4552C3.54166 12.2497 2.13128 8.97387 0.81563 5.91803ZM2.2376 16.7177C3.48816 14.7981 5.49276 13.2419 9.76004 13.0314C10.684 12.9856 11.7119 13.002 12.8636 13.093C12.3617 20.1308 5.67651 23.0458 0.5 20.2812C0.607881 20.0388 0.713678 19.7933 0.820078 19.5464C1.23156 18.5916 1.65266 17.6154 2.2376 16.7177ZM25.512 9.92879H28.2783L30.6986 17.0403L32.9464 9.92879H35.6271L31.9093 20.1308H29.4237L25.512 9.92879ZM35.2037 15.0512C35.2037 11.9394 37.3653 9.73493 40.4558 9.73493C43.5254 9.73493 45.687 11.9394 45.687 15.0512C45.687 18.1208 43.482 20.3252 40.3916 20.3252C37.3213 20.3252 35.2037 18.1637 35.2037 15.0512ZM42.9623 15.116V15.0298C42.9623 13.0853 42.0108 11.9174 40.4552 11.9174C38.8775 11.9174 37.9261 13.0853 37.9261 15.0298V15.116C37.9261 17.0177 38.8549 18.1422 40.4118 18.1422C41.9894 18.1422 42.9623 17.0189 42.9623 15.116ZM46.9043 5.5848H49.6064V20.1308H46.9043V5.5848ZM51.1483 16.0461V9.92879H53.8285V15.8944C53.8285 17.2562 54.4767 18.056 55.6874 18.056C57.092 18.056 57.6765 16.8673 57.6765 15.1166V9.92998H60.3567V20.132H57.6765V18.684C57.136 19.7431 56.2059 20.3276 54.8882 20.3276C52.5743 20.3252 51.1483 18.6822 51.1483 16.0461ZM62.8061 17.4287V12.0904H61.3575V9.92879H62.8061V8.00566L65.4208 6.53507V9.92879H67.4313V12.0904H65.3994V17.17C65.3994 17.6671 65.6366 17.8836 66.1338 17.9044H67.3231V20.1308H65.2483C63.2806 20.0226 62.8489 19.1151 62.8061 17.4287ZM68.6486 5.82207H71.4363V8.43738H68.6486V5.82207ZM68.6926 9.92879H71.3947V20.1308H68.6926V9.92879ZM72.612 15.0512C72.612 11.9394 74.7736 9.73493 77.8646 9.73493C80.9337 9.73493 83.0952 11.9394 83.0952 15.0512C83.0952 18.1208 80.8908 20.3252 77.7998 20.3252C74.7308 20.3252 72.612 18.1637 72.612 15.0512ZM80.3723 15.1154V15.0298C80.3723 13.0853 79.4208 11.9174 77.8646 11.9174C76.287 11.9174 75.3355 13.0853 75.3355 15.0298V15.116C75.3355 17.0177 76.2644 18.1422 77.8206 18.1422C79.3988 18.1422 80.3723 17.0183 80.3723 15.1154ZM84.2917 9.92879H86.9718V11.5939C87.5124 10.4045 88.5067 9.71293 89.9552 9.71293C92.1816 9.71293 93.5 11.2044 93.5 14.0141V20.1308H90.8199V14.1652C90.8199 12.7392 90.2793 12.0036 89.0264 12.0036C87.7502 12.0036 86.973 13.0413 86.973 14.943V20.1302H84.2923L84.2917 9.92879ZM10.1085 12.4552C10.941 12.4813 11.855 12.4597 12.8636 12.38C12.7185 10.3492 12.0578 8.66216 11.0677 7.3551C11.3049 9.11427 10.9687 10.9031 10.1091 12.4561L10.1085 12.4552ZM15.6263 5.77881H26.0222V8.13485H18.3279V11.5714H23.4503V13.9274H18.3279V17.7749H26.2606V20.1315H15.6263V5.77881Z" fill="white"/>
</g>
</g>
<defs>
<clipPath id="clip0_4688_545">
<rect width="93" height="26" fill="white" transform="translate(0.5 0.159973)"/>
</clipPath>
</defs>
</svg>
