<svg width="94" height="31" viewBox="0 0 94 31" fill="none" xmlns="http://www.w3.org/2000/svg">
<g clip-path="url(#clip0_4691_527)">
<g clip-path="url(#clip1_4691_527)">
<g clip-path="url(#clip2_4691_527)">
<path fill-rule="evenodd" clip-rule="evenodd" d="M14.5938 18.668V17.3548H18.1365V18.883C18.1365 20.2817 18.6889 20.9814 19.793 20.9814H19.807C20.9011 20.9814 21.449 20.284 21.449 18.8898C21.449 18.0932 21.2132 17.3465 20.7401 16.6491C20.2678 15.9516 19.7029 15.314 19.0454 14.7362L17.2697 12.9437C16.5359 12.3167 15.9219 11.5397 15.4278 10.6136C14.9329 9.68669 14.6855 8.66057 14.6855 7.53527C14.6855 5.8034 15.1524 4.47512 16.0862 3.54899C17.0191 2.62285 18.2875 2.16016 19.8896 2.16016C21.4917 2.16016 22.722 2.62285 23.581 3.54823C24.44 4.47364 24.8695 5.80188 24.8695 7.53299V8.21983H21.6022V7.32476C21.6022 5.92154 21.0248 5.21955 19.8693 5.21955C18.7138 5.21955 18.1365 5.9223 18.1365 7.32628C18.1365 7.9139 18.2626 8.4743 18.5139 9.00742C18.7653 9.54053 19.0912 10.0206 19.492 10.4492C19.8927 10.8771 20.3347 11.3004 20.817 11.7184C21.2996 12.1372 21.7765 12.5757 22.2464 13.0339C22.7164 13.492 23.1515 13.9819 23.5507 14.5052C23.949 15.0277 24.2735 15.6457 24.5241 16.3575C24.7746 17.0701 24.8998 17.844 24.8998 18.6808C24.8998 20.4082 24.4603 21.7334 23.581 22.6565C22.7017 23.5796 21.4606 24.0416 19.8576 24.0416C18.2547 24.0416 16.9763 23.5788 16.0232 22.6535C15.07 21.7281 14.5938 20.3991 14.5938 18.668Z" fill="white"/>
<path fill-rule="evenodd" clip-rule="evenodd" d="M30.3132 12.7122H31.9542C32.516 12.7122 32.9378 12.5577 33.2195 12.2495C33.5004 11.9413 33.6412 11.4188 33.6412 10.682V7.4734C33.6412 6.73658 33.5004 6.21709 33.2195 5.91341C32.9378 5.60976 32.516 5.45828 31.9542 5.45828H30.3132V12.7122ZM26.8623 23.8017V2.39893H31.9465C35.3764 2.39893 37.0921 4.16715 37.0921 7.70283V10.4828C37.0921 14.0086 35.378 15.7723 31.9504 15.7723H30.3132V23.8017H26.8623Z" fill="white"/>
<path fill-rule="evenodd" clip-rule="evenodd" d="M42.153 12.0398H43.5023C44.1979 12.0398 44.7169 11.8656 45.0593 11.5173C45.4017 11.1689 45.5729 10.5873 45.5729 9.77102V7.66657C45.583 6.19442 45.0002 5.45761 43.8244 5.45761H42.153V12.0398ZM38.7021 23.801V2.39746H43.9093C45.6849 2.39746 46.982 2.80109 47.7983 3.6076C48.6153 4.41406 49.0238 5.65373 49.0238 7.32654V9.01372C49.0238 11.2144 48.2706 12.663 46.7641 13.3597C48.2908 13.9875 49.0542 15.5059 49.0542 17.9155V21.3429C49.0542 22.4356 49.1771 23.255 49.4222 23.801H45.9238C45.7207 23.1952 45.6141 22.3213 45.604 21.1786V17.8261C45.604 16.853 45.4274 16.1548 45.0749 15.7331C44.7216 15.3105 44.1466 15.0999 43.349 15.0999H42.153V23.801H38.7021Z" fill="white"/>
<path fill-rule="evenodd" clip-rule="evenodd" d="M51.3242 23.802H54.7752V2.39844H51.3242V23.802Z" fill="white"/>
<path fill-rule="evenodd" clip-rule="evenodd" d="M60.7407 20.7423H62.7195C63.3225 20.7423 63.7723 20.5855 64.069 20.272C64.3652 19.9585 64.5139 19.414 64.5139 18.6378V16.7719C64.5139 15.7966 64.3426 15.1203 63.9997 14.7424C63.6572 14.3638 63.0878 14.1752 62.2901 14.1752H60.7407V20.7423ZM60.7407 11.1151H62.0964C62.7944 11.1151 63.3156 10.941 63.6597 10.5926C64.0042 10.2443 64.1763 9.66721 64.1763 8.86147V7.66724C64.1861 6.19513 63.6011 5.45828 62.42 5.45828H60.7407V11.1151ZM57.29 23.8024V2.39893H62.5048C64.2836 2.39893 65.5823 2.80179 66.4 3.6075C67.2177 4.41325 67.627 5.65216 67.627 7.3242V8.08526C67.627 10.2844 66.8934 11.7225 65.4002 12.3987C67.1183 13.0552 67.9642 14.5834 67.9642 16.9809V18.7272C67.9642 20.3788 67.5197 21.6381 66.6303 22.5037C65.74 23.3693 64.4368 23.8024 62.7195 23.8024H57.29Z" fill="white"/>
<path fill-rule="evenodd" clip-rule="evenodd" d="M70.0352 23.802V2.39844H79.4517V5.45858H73.486V11.4137H78.2247V14.4731H73.486V20.7418H79.4517V23.802H70.0352Z" fill="white"/>
<path fill-rule="evenodd" clip-rule="evenodd" d="M14.5 28.16H79.5V25.1885H14.5V28.16Z" fill="white"/>
</g>
</g>
</g>
<defs>
<clipPath id="clip0_4691_527">
<rect width="93" height="30" fill="white" transform="translate(0.5 0.160156)"/>
</clipPath>
<clipPath id="clip1_4691_527">
<rect width="93" height="30" fill="white" transform="translate(0.5 0.160156)"/>
</clipPath>
<clipPath id="clip2_4691_527">
<rect width="93" height="26" fill="white" transform="translate(0.5 2.16016)"/>
</clipPath>
</defs>
</svg>
