<svg width="94" height="31" viewBox="0 0 94 31" fill="none" xmlns="http://www.w3.org/2000/svg">
<g clip-path="url(#clip0_4688_408)">
<g clip-path="url(#clip1_4688_408)">
<mask id="mask0_4688_408" style="mask-type:luminance" maskUnits="userSpaceOnUse" x="0" y="9" width="94" height="13">
<path d="M93.3431 9.15997H0.5V22H93.3431V9.15997Z" fill="white"/>
</mask>
<g mask="url(#mask0_4688_408)">
<path d="M51.9836 10.404C51.3435 10.0675 50.6414 9.87823 49.836 9.87823H42.6084V21.9503H45.4789V18.0805H49.485C50.3523 18.0805 51.1163 17.8912 51.7978 17.5337C52.4792 17.1762 53.0368 16.6504 53.4498 16.0194C53.8629 15.3675 54.0693 14.6524 54.0693 13.8322C54.0693 13.075 53.8835 12.402 53.4912 11.8131C53.1401 11.2032 52.6238 10.7405 51.9836 10.404ZM50.7653 14.7155C50.5795 14.9468 50.311 15.1572 50.0012 15.3044C49.6914 15.4516 49.3404 15.5147 48.9481 15.5147H45.4375V12.4651H48.9481C49.3404 12.4651 49.6914 12.5282 50.0012 12.6334C50.311 12.7385 50.5795 12.9068 50.7653 13.1171C50.9512 13.3274 51.0544 13.5798 51.0544 13.8742C51.0544 14.1897 50.9512 14.4631 50.7653 14.7155Z" fill="white"/>
<path d="M58.4749 9.87823H55.6045V21.9503H66.1362V19.3634H58.4749V9.87823Z" fill="white"/>
<path d="M73.4722 9.87823L67.5869 21.9503H70.4986L71.5518 19.8051H78.0359L79.0891 21.9503H82.0628L76.1774 9.87823H73.4722ZM72.6049 17.5968L73.9678 14.7996C74.0711 14.5683 74.195 14.3369 74.2982 14.1266C74.4014 13.8953 74.5047 13.6639 74.5873 13.4536C74.6492 13.3064 74.7112 13.1592 74.7732 13.033C74.8145 13.1592 74.8764 13.2854 74.9384 13.4326C75.021 13.6429 75.1242 13.8532 75.2275 14.0846C75.3307 14.2949 75.434 14.5472 75.5579 14.7996L76.9414 17.6178H72.6049V17.5968Z" fill="white"/>
<path d="M93.2816 9.87823H89.9361L86.1572 14.9889L82.275 9.87823H78.6611L84.6911 17.4496V21.9503H87.5824V17.3024L93.2816 9.87823Z" fill="white"/>
<path d="M28.2502 9.88068H25.2504L19.8457 21.949H30.4377V19.3618H24.0069L28.2502 9.88068Z" fill="white"/>
<path d="M13.8566 16.9997H20.3977L21.4558 14.6195H14.9289L15.9372 12.3807H22.4569L23.5791 9.88068H14.0169L8.60156 21.949H18.1638L19.2896 19.4489H12.7556L13.8566 16.9997Z" fill="white"/>
<path d="M9.20009 9.88068L4.98185 19.4271H3.27888V9.8952H0.560547V21.949H6.78101L12.1999 9.88068H9.20009Z" fill="white"/>
<path d="M37.9585 19.3612V12.4671L35.0799 14.3975V19.3612H31.8984V21.9483H41.1543V19.3612H37.9585Z" fill="white"/>
<path d="M31.4785 11.6293C34.7491 12.8304 38.3296 12.8304 41.6037 11.6293L40.7415 9.19464C38.0268 10.1888 35.0555 10.1888 32.3371 9.19464L31.4785 11.6293Z" fill="#FF87C8"/>
</g>
</g>
</g>
<defs>
<clipPath id="clip0_4688_408">
<rect width="93" height="30" fill="white" transform="translate(0.5 0.159973)"/>
</clipPath>
<clipPath id="clip1_4688_408">
<rect width="93" height="26" fill="white" transform="translate(0.5 2.15997)"/>
</clipPath>
</defs>
</svg>
