<svg width="94" height="31" viewBox="0 0 94 31" fill="none" xmlns="http://www.w3.org/2000/svg">
<g clip-path="url(#clip0_4688_282)">
<g clip-path="url(#clip1_4688_282)">
<mask id="mask0_4688_282" style="mask-type:luminance" maskUnits="userSpaceOnUse" x="0" y="2" width="94" height="27">
<path d="M93.5 2.15997H0.5V28.16H93.5V2.15997Z" fill="white"/>
</mask>
<g mask="url(#mask0_4688_282)">
<path fill-rule="evenodd" clip-rule="evenodd" d="M14.125 6.15997H0.5V23.2851H14.125V6.15997ZM3.79986 9.26015V20.685L7.62489 20.6598C8.77481 20.6598 9.67472 20.36 10.3 19.8102C10.9247 19.2604 11.2251 18.4349 11.2251 17.3348C11.2479 16.755 11.1001 16.1814 10.8 15.6848C10.6576 15.4453 10.4658 15.2389 10.2373 15.0794C10.0089 14.9198 9.74897 14.8109 9.47504 14.7598C9.9242 14.5637 10.3003 14.2312 10.55 13.8095C10.7749 13.3598 10.9001 12.8598 10.9001 12.3598C10.9001 11.3351 10.55 10.56 9.90011 10.0348C9.2502 9.51016 8.32513 9.26015 7.15004 9.26015H3.79986ZM5.87485 18.9097V15.6351H7.60027C7.97501 15.6099 8.32513 15.7849 8.54997 16.0847C8.77173 16.4624 8.87627 16.8975 8.8503 17.3348C8.87743 17.7558 8.75327 18.1728 8.50018 18.5104C8.36386 18.6481 8.19963 18.7549 8.01855 18.8238C7.83747 18.8927 7.64373 18.922 7.45038 18.9097H5.87485ZM7.10026 14.0852H5.87485V11.0348H7.00015C7.40005 11.0102 7.82511 11.1349 8.1249 11.4101C8.40007 11.735 8.5248 12.1601 8.50018 12.5852C8.54997 12.9846 8.40007 13.385 8.15007 13.6848C8.01384 13.8227 7.84965 13.9297 7.66857 13.9988C7.48748 14.0679 7.2937 14.0973 7.10026 14.0852ZM27.2004 23.26H28.0002V6.15997H27.2004V23.26ZM41.1001 23.26H41.8999V6.15997H41.1001V23.26ZM54.9751 23.26H55.7749V6.15997H54.9751V23.26ZM68.9 23.26H69.6752V6.15997H68.9V23.26ZM82.8002 23.26H83.6V6.15997H82.8002V23.26ZM22.8754 20.035C23.4006 19.7347 23.8502 19.3102 24.15 18.785H24.2004V14.6602H20.65V15.8101H22.6002V18.4349C22.4503 18.7101 22.2003 18.9601 21.9251 19.1351C21.5252 19.3348 21.1002 19.4349 20.6505 19.4098C20.3193 19.4201 19.99 19.3559 19.687 19.2218C19.384 19.0877 19.115 18.8872 18.8999 18.6351C18.4754 18.1351 18.25 17.3851 18.25 16.4102V13.0097C18.25 12.06 18.4502 11.3351 18.8501 10.8346C19.048 10.5901 19.3001 10.395 19.5865 10.2649C19.8729 10.1348 20.1857 10.0732 20.5001 10.0851C21.1751 10.0851 21.6998 10.2848 22.0499 10.6349C22.4 10.985 22.5751 11.5348 22.6002 12.2597H24.1003L24.1254 12.2099C24.0751 11.1355 23.7501 10.31 23.1254 9.735C22.5001 9.16004 21.6254 8.8597 20.4503 8.8597C19.3004 8.83509 18.3753 9.20982 17.6756 9.93522C16.9754 10.6601 16.6252 11.6853 16.6252 13.0097V16.3851C16.6252 17.7347 17 18.7599 17.7254 19.4853C18.4502 20.2101 19.4251 20.5848 20.6253 20.5848C21.4 20.61 22.2003 20.4349 22.8754 20.035ZM34.5004 11.5102L35.8998 16.5103H33.0004L34.4501 11.5102H34.5004ZM36.2747 17.7598H32.6508L31.8247 20.6352H30.2L33.6995 9.23444H35.2499L38.7248 20.6346H37.1L36.2747 17.7598ZM48.4252 18.535L45.7501 9.23499L43.6997 9.23444V20.6352H45.2752V16.2598L45.15 11.8849H45.1751L47.9252 20.6346H48.9756L51.6999 11.8598L51.7502 11.8849L51.625 16.2598V20.6352H53.1999V9.23499H51.1501L48.475 18.535H48.4252ZM61.4999 20.6352H63.0749V9.23444H61.4999V20.6352ZM78.5999 20.6352H80.2V9.23499H78.5999V17.6843H78.5501L74.2251 9.23444H72.6501V20.6352H74.2251V12.1601H74.2754L78.5999 20.6352ZM92.2249 20.11C92.7501 19.8102 93.1752 19.3851 93.5001 18.86V14.7105H89.9749V15.8599H91.9251V18.4595C91.7752 18.7352 91.5252 18.9847 91.2501 19.1598C90.8502 19.36 90.4251 19.4601 89.9749 19.4349C89.6438 19.4452 89.3146 19.3808 89.0118 19.2467C88.709 19.1125 88.4402 18.9119 88.2254 18.6597C87.8003 18.1603 87.5749 17.4097 87.5749 16.4349V13.0349C87.5749 12.0852 87.7751 11.3598 88.175 10.8598C88.3728 10.6151 88.625 10.42 88.9114 10.2898C89.1978 10.1596 89.5106 10.0979 89.825 10.1097C90.5 10.1097 91.0252 10.2848 91.3753 10.6601C91.7249 11.0348 91.9 11.56 91.9251 12.2849H93.4252L93.4503 12.2351C93.4 11.1601 93.075 10.3346 92.4503 9.76016C91.825 9.1852 90.9503 8.88542 89.7752 8.88542C88.6499 8.88542 87.7254 9.26015 87.0251 9.985C86.3249 10.7099 85.9753 11.735 85.9753 13.06V16.4852C85.9753 17.8348 86.3501 18.86 87.0749 19.5848C87.8249 20.3097 88.7752 20.6598 89.9749 20.6598C90.75 20.685 91.5498 20.5099 92.2249 20.11Z" fill="#FFCD00"/>
</g>
</g>
</g>
<defs>
<clipPath id="clip0_4688_282">
<rect width="93" height="30" fill="white" transform="translate(0.5 0.159973)"/>
</clipPath>
<clipPath id="clip1_4688_282">
<rect width="93" height="26" fill="white" transform="translate(0.5 2.15997)"/>
</clipPath>
</defs>
</svg>
