<svg width="94" height="31" viewBox="0 0 94 31" fill="none" xmlns="http://www.w3.org/2000/svg">
<g clip-path="url(#clip0_4688_244)">
<g clip-path="url(#clip1_4688_244)">
<path fill-rule="evenodd" clip-rule="evenodd" d="M82.9881 22.1844H86.525V18.6475H90.0619V15.1106H93.5V4.59576H82.9881V8.13267H75.8097V4.59576H65.2978V15.1077H68.7358V18.6446H72.2728V22.1815H75.8097V25.7184H82.9881V22.1815V22.1844ZM87.5364 9.85317V6.31336H91.0733V9.85026H87.5364V13.3872H83.9995V9.85026H87.5364V9.85317Z" fill="#ED1B2E"/>
<path d="M0.5 22.2164V19.4583H3.25803V12.5647H0.5V11.1871H1.87756V9.80957H3.25512V8.43201H6.01316V19.4641H8.77119V22.2222H0.5V22.2164Z" fill="white"/>
<path d="M11.0352 22.2164V20.8388H9.65759V9.80667H11.0352V8.42911H19.3092V9.80667H20.6868V20.8388H19.3092V22.2164H11.0352ZM17.9288 19.4583V11.1842H12.4127V19.4583H17.9288Z" fill="white"/>
<path d="M22.9479 22.2164V20.8388H21.5674V9.80667H22.9479V8.42911H31.222V9.80667H32.5995V20.8388H31.222V22.2164H22.9479ZM29.8444 19.4583V11.1842H24.3284V19.4583H29.8444Z" fill="white"/>
<path d="M43.6636 22.0827V16.5695H38.1505V22.0827H35.3954V8.30414H38.1505V13.8173H43.6636V8.30414H46.4188V22.0856H43.6636V22.0827Z" fill="white"/>
<path d="M47.3022 22.0827V8.30414H56.9481V9.6817H58.3257V15.1949H56.9481V16.5724H50.0574V22.0856H47.3022V22.0827ZM55.5705 13.8144V11.0593H50.0574V13.8144H55.5705Z" fill="white"/>
</g>
</g>
<defs>
<clipPath id="clip0_4688_244">
<rect width="93" height="30" fill="white" transform="translate(0.5 0.159973)"/>
</clipPath>
<clipPath id="clip1_4688_244">
<rect width="93" height="21.1284" fill="white" transform="translate(0.5 4.59576)"/>
</clipPath>
</defs>
</svg>
