<svg width="94" height="31" viewBox="0 0 94 31" fill="none" xmlns="http://www.w3.org/2000/svg">
<g clip-path="url(#clip0_4688_71)">
<g clip-path="url(#clip1_4688_71)">
<path d="M15.9116 27.7222C22.7663 27.7222 28.3231 21.9999 28.3231 14.9411C28.3231 7.88227 22.7663 2.15997 15.9116 2.15997C9.05685 2.15997 3.5 7.88227 3.5 14.9411C3.5 21.9999 9.05685 27.7222 15.9116 27.7222Z" fill="white"/>
<path d="M25.1315 18.9091L21.1599 14.8191L25.1315 10.7291C25.6281 10.2179 25.6281 9.41448 25.1315 8.90323L21.609 5.27583C21.1126 4.76458 20.3324 4.76458 19.836 5.27583L15.8643 9.36579L11.8926 5.27583C11.3961 4.76458 10.6159 4.76458 10.1195 5.27583L6.59696 8.90323C6.10049 9.41448 6.10049 10.2179 6.59696 10.7291L10.5687 14.8191L6.59696 18.9091C6.10049 19.4203 6.10049 20.2236 6.59696 20.7349L10.1195 24.3623C10.6159 24.8735 11.3961 24.8735 11.8926 24.3623L15.8643 20.2724L19.836 24.3623C20.3324 24.8735 21.1126 24.8735 21.609 24.3623L25.1315 20.7349C25.6281 20.2236 25.6281 19.4203 25.1315 18.9091Z" fill="#FF003A"/>
<path d="M84.5891 2.15997C81.3266 2.15997 78.6789 4.88661 78.6789 8.24622C78.6789 11.6058 81.3266 14.3325 84.5891 14.3325C87.8518 14.3325 90.4996 11.6058 90.4996 8.24622C90.4996 4.88661 87.8518 2.15997 84.5891 2.15997ZM87.3078 9.46346C87.4497 9.60954 87.4497 9.85298 87.3078 9.99906L86.2676 11.0702C86.1258 11.2163 85.8893 11.2163 85.7475 11.0702L84.5891 9.87733L83.4307 11.0702C83.2888 11.2163 83.0525 11.2163 82.9106 11.0702L81.8704 9.99906C81.7286 9.85298 81.7286 9.60954 81.8704 9.46346L83.0287 8.27056L81.8704 7.07766C81.7286 6.93159 81.7286 6.68814 81.8704 6.54207L82.9106 5.47089C83.0525 5.32482 83.2888 5.32482 83.4307 5.47089L84.5891 6.66379L85.7475 5.47089C85.8893 5.32482 86.1258 5.32482 86.2676 5.47089L87.3078 6.54207C87.4497 6.68814 87.4497 6.93159 87.3078 7.07766L86.1494 8.27056L87.3078 9.46346Z" fill="white"/>
<path d="M47.567 17.2527H50.8767C51.0186 17.2527 51.1604 17.3501 51.2077 17.4962L54.8957 27.6481C54.9902 27.8915 54.8011 28.1349 54.5648 28.1349H51.4914C51.3496 28.1349 51.2077 28.0375 51.1604 27.8915L50.8531 27.015C50.8058 26.869 50.664 26.7716 50.5221 26.7716H47.9216C47.7797 26.7716 47.6379 26.869 47.5906 27.015L47.2833 27.8915C47.236 28.0375 47.0941 28.1349 46.9523 28.1349H43.9026C43.6662 28.1349 43.4771 27.8915 43.5716 27.6481L47.236 17.4718C47.2833 17.3501 47.4252 17.2527 47.567 17.2527ZM49.9311 24.2884C50.1675 24.2884 50.333 24.045 50.2621 23.8259L49.2455 20.588H49.1746L48.1817 23.8259C48.1107 24.0693 48.2762 24.2884 48.5126 24.2884H49.9311Z" fill="white"/>
<path d="M56.4561 17.2527H58.8911C59.0094 17.2527 59.104 17.3014 59.1748 17.3988L62.0827 21.44C62.2245 21.6348 62.5082 21.6348 62.6501 21.44L65.5579 17.3988C65.6288 17.3014 65.7234 17.2527 65.8416 17.2527H68.253C68.4422 17.2527 68.6077 17.4231 68.6077 17.6179V27.7697C68.6077 27.9645 68.4422 28.1349 68.253 28.1349H65.3925C65.2033 28.1349 65.0378 27.9645 65.0378 27.7697V25.6274L65.0614 23.3876H65.0142L63.4538 25.5787C63.383 25.6761 63.2884 25.7248 63.1701 25.7248H61.5153C61.3971 25.7248 61.3026 25.6761 61.2316 25.5787L59.6713 23.3633L59.624 23.3876L59.6476 25.6274V27.7697C59.6476 27.9645 59.4822 28.1349 59.2931 28.1349H56.4561C56.267 28.1349 56.1015 27.9645 56.1015 27.7697V17.6179C56.1015 17.3988 56.2434 17.2527 56.4561 17.2527Z" fill="white"/>
<path d="M87.0243 21.5641H83.6435C83.6435 21.5641 82.9106 21.6128 82.9106 20.9555C82.9106 20.2982 83.6435 20.2982 83.6435 20.2982H90.1449C90.3341 20.2982 90.4998 20.1277 90.4998 19.933V17.5959C90.4998 17.4011 90.3341 17.2307 90.1449 17.2307H83.4308C81.705 17.2307 79.9319 17.2307 79.9319 20.8338C79.9319 24.096 81.6341 23.8039 83.3835 23.8039H86.7642C86.7642 23.8039 87.5207 23.8039 87.5207 24.4125C87.5207 25.0211 86.7878 25.0454 86.7878 25.0454H78.3007C78.3007 25.0454 78.3007 25.0454 78.2771 25.0454H72.7687V24.169C72.7687 23.9743 72.9341 23.8039 73.1232 23.8039H76.5276C76.7167 23.8039 76.8822 23.6335 76.8822 23.4387V21.8806C76.8822 21.6859 76.7167 21.5155 76.5276 21.5155H72.7687V20.6634C72.7687 20.4686 72.9341 20.2982 73.1232 20.2982H78.2771C78.4662 20.2982 78.6316 20.1277 78.6316 19.933V17.5959C78.6316 17.4011 78.4662 17.2307 78.2771 17.2307H70.1681C69.979 17.2307 69.8135 17.4011 69.8135 17.5959V27.7477C69.8135 27.9425 69.979 28.113 70.1681 28.113H87.0006C88.7971 28.113 90.4762 28.113 90.4762 24.5099C90.4998 21.272 88.7029 21.5641 87.0243 21.5641Z" fill="white"/>
<path d="M62.9809 14.0641L60.995 10.6558C60.9005 10.5098 60.7586 10.4124 60.5932 10.4124H59.5292C59.2693 10.4124 59.0564 10.6315 59.0564 10.8993V13.7964C59.0564 14.0641 58.8437 14.2833 58.5836 14.2833H55.8649C55.6048 14.2833 55.3921 14.0641 55.3921 13.7964V2.67068C55.3921 2.40288 55.6048 2.18378 55.8649 2.18378H62.6263C65.345 2.18378 66.7162 4.2531 66.7162 6.29808C66.7162 7.71009 66.0778 9.1221 64.8012 9.8768C64.7776 9.90114 64.7539 9.94983 64.7776 9.97417L66.7871 13.5773C66.9762 13.8937 66.7398 14.3076 66.3615 14.3076H63.3828C63.2173 14.3076 63.0755 14.2346 62.9809 14.0641ZM59.0564 7.56403C59.0564 7.58836 59.0801 7.61271 59.1037 7.61271H61.7752C62.6735 7.61271 63.1227 6.9554 63.1227 6.29808C63.1227 5.64076 62.6735 4.98345 61.7752 4.98345H59.5292C59.2693 4.98345 59.0564 5.20255 59.0564 5.47035V7.56403Z" fill="white"/>
<path d="M76.8821 8.0758C76.8584 8.05146 76.8584 8.05146 76.8584 8.02712C76.8584 8.00277 76.8584 8.00277 76.8821 7.97843C77.4495 7.3698 77.7804 6.396 77.7804 5.4222C77.7804 3.15811 76.3619 2.15997 74.9435 2.15997H68.4422C68.1112 2.15997 67.8512 2.42777 67.8512 2.7686V13.7239C67.8512 14.0647 68.1112 14.3325 68.4422 14.3325H74.9435C77.0948 14.3325 78.0641 12.531 78.0641 10.8755C78.0641 9.73126 77.615 8.70877 76.8821 8.0758ZM73.6669 7.27242H71.1136V5.30047C71.1136 5.10571 71.2791 4.9353 71.4682 4.9353H73.6669C74.4943 4.9353 74.8726 5.51958 74.8726 6.10386C74.8726 6.68814 74.4943 7.27242 73.6669 7.27242ZM71.4682 9.41478H73.6669C74.4943 9.41478 74.8726 9.99906 74.8726 10.5833C74.8726 11.1433 74.4943 11.7519 73.6669 11.7519H71.1136V9.77995C71.1136 9.5852 71.2791 9.41478 71.4682 9.41478Z" fill="white"/>
<path d="M42.5548 21.6112H38.725C38.4177 21.6112 38.1812 21.8546 38.1812 22.1711V23.5344C38.1812 23.8509 38.4177 24.0944 38.725 24.0944H40.0016C40.0489 24.0944 40.0962 24.1431 40.0962 24.1918V24.8977C40.0962 24.9222 40.0725 24.9708 40.0489 24.9952C39.6943 25.1899 39.2924 25.2873 38.7723 25.2873H38.7014C37.5902 25.2873 37.0228 25.263 36.5028 25.2386C35.4152 25.1656 34.6115 24.1187 34.6115 22.7554V22.7311C34.6115 21.5625 35.3207 20.5887 36.4082 20.2723C36.6682 20.1992 40.8527 20.1749 42.4366 20.1992C42.6967 20.1992 42.8858 19.9801 42.8858 19.7366C42.8858 19.0306 42.8858 17.7647 42.8858 17.7647C42.8858 17.4969 42.6731 17.3022 42.4366 17.3022C40.829 17.3022 36.4791 17.3022 36.3845 17.3265C33.5003 17.5456 31.4199 19.8341 31.4199 22.7311V22.7554C31.4199 25.9446 32.9802 27.9165 35.6989 28.1357C35.8172 28.1357 36.7155 28.16 38.0866 28.16C38.6304 28.16 39.056 28.16 39.1269 28.16C39.1742 28.16 39.2214 28.16 39.2924 28.16C40.7345 28.16 42.9568 26.6749 43.1222 26.2367C43.1459 26.1881 43.1222 22.2199 43.1222 22.2199C43.0986 21.8546 42.8622 21.6112 42.5548 21.6112Z" fill="white"/>
<path d="M41.089 2.15997H32.0818C31.8217 2.15997 31.609 2.37908 31.609 2.64687V5.4222C31.609 5.68999 31.8217 5.9091 32.0818 5.9091H34.2804C34.5404 5.9091 34.7532 6.1282 34.7532 6.396V13.8456C34.7532 14.1134 34.966 14.3325 35.2261 14.3325H37.9211C38.1812 14.3325 38.3939 14.1134 38.3939 13.8456V6.42035C38.3939 6.15255 38.6067 5.93344 38.8668 5.93344H41.0654C41.3254 5.93344 41.5382 5.71434 41.5382 5.44655V2.64687C41.5618 2.37908 41.3491 2.15997 41.089 2.15997Z" fill="white"/>
<path d="M50.9474 2.18378C50.6873 2.18378 50.4746 2.40288 50.4746 2.67068V10.1202C50.4746 10.6315 50.2854 10.8263 49.7653 10.8263H47.1884C46.6683 10.8263 46.4792 10.6315 46.4792 10.1202V2.67068C46.4792 2.40288 46.2665 2.18378 46.0064 2.18378H43.2168C42.9567 2.18378 42.744 2.40288 42.744 2.67068V10.6071C42.744 11.8974 43.0513 12.8469 43.6423 13.4312C44.2333 14.0398 45.2026 14.3319 46.4792 14.3319H50.4272C51.7039 14.3319 52.6732 14.0155 53.2642 13.4312C53.8552 12.8226 54.1626 11.8731 54.1626 10.6071V2.67068C54.1626 2.40288 53.9498 2.18378 53.6898 2.18378H50.9474Z" fill="white"/>
</g>
</g>
<defs>
<clipPath id="clip0_4688_71">
<rect width="93" height="30" fill="white" transform="translate(0.5 0.159973)"/>
</clipPath>
<clipPath id="clip1_4688_71">
<rect width="93" height="26" fill="white" transform="translate(0.5 2.15997)"/>
</clipPath>
</defs>
</svg>
