<svg width="94" height="31" viewBox="0 0 94 31" fill="none" xmlns="http://www.w3.org/2000/svg">
<g clip-path="url(#clip0_4688_458)">
<g clip-path="url(#clip1_4688_458)">
<mask id="mask0_4688_458" style="mask-type:luminance" maskUnits="userSpaceOnUse" x="0" y="2" width="94" height="27">
<path d="M93.5 2.15997H0.5V28.16H93.5V2.15997Z" fill="white"/>
</mask>
<g mask="url(#mask0_4688_458)">
<path d="M54.1557 13.5565L54.0236 14.381C53.5148 13.8076 52.7309 13.3954 51.5029 13.3954C49.3051 13.3954 47.7461 15.0676 47.7461 17.4258C47.7461 19.7839 49.3051 21.4728 51.5029 21.4728C52.6417 21.4728 53.5061 21.0853 54.0236 20.4872L54.1557 21.311H56.0994V13.5565H54.1557ZM51.9311 19.6155C50.695 19.6155 49.8306 18.6458 49.8306 17.4178C49.8306 16.1897 50.695 15.2534 51.9311 15.2534C53.1671 15.2534 54.0388 16.1824 54.0388 17.4178C54.0388 18.6531 53.1504 19.6155 51.9311 19.6155Z" fill="white"/>
<path d="M62.9797 15.0588V13.5564H56.986V15.2852H60.6128L56.9453 19.8172V21.3116H63.2221V19.5827H59.3122L62.9797 15.0588Z" fill="white"/>
<path d="M69.7476 10.1599V14.4951C69.2323 13.8492 68.4317 13.3955 67.1891 13.3955C64.9914 13.3955 63.4316 15.0678 63.4316 17.4252C63.4316 19.7826 64.9914 21.4723 67.1891 21.4723C68.3272 21.4723 69.1902 21.0847 69.7084 20.4888L69.8398 21.3126H71.7857V10.1599H69.7476ZM67.6159 19.6142C66.3806 19.6142 65.5147 18.6467 65.5147 17.4165C65.5147 16.1862 66.3806 15.2529 67.6159 15.2529C68.8512 15.2529 69.7237 16.1819 69.7237 17.4165C69.7237 18.6511 68.8374 19.6142 67.6159 19.6142Z" fill="white"/>
<path d="M78.9833 13.5565L78.8498 14.381C78.341 13.8076 77.5571 13.3954 76.329 13.3954C74.1313 13.3954 72.5723 15.0676 72.5723 17.4258C72.5723 19.7839 74.1313 21.4728 76.329 21.4728C77.4678 21.4728 78.3323 21.0853 78.8498 20.4872L78.9833 21.311H80.9263V13.5565H78.9833ZM76.758 19.6155C75.5219 19.6155 74.6575 18.6458 74.6575 17.4178C74.6575 16.1897 75.5219 15.2534 76.758 15.2534C77.994 15.2534 78.8657 16.1824 78.8657 17.4178C78.8657 18.6531 77.9773 19.6155 76.758 19.6155Z" fill="white"/>
<path d="M86.32 13.3949C85.1645 13.3949 84.3327 13.9116 83.9292 14.4531L83.7964 13.5567H81.918V21.312H83.9858V16.9738C83.9858 15.8996 84.7936 15.3175 85.7067 15.3175C86.6197 15.3175 87.3143 15.8989 87.3143 16.9738V21.312H89.3822V16.4411C89.3822 14.575 88.1135 13.3949 86.32 13.3949Z" fill="white"/>
<path d="M92.7832 10.1599L92.2367 11.61L91.6844 10.1599H90.8867V12.4578H91.4333V10.829H91.4449L92.0248 12.4578H92.4429L93.0235 10.829H93.0344V12.4578H93.5809V10.1599H92.7832Z" fill="white"/>
<path d="M88.7168 10.6004H89.386V12.4578H89.9325V10.6004H90.6024V10.1599H88.7168V10.6004Z" fill="white"/>
<path d="M30.4812 10.1599H1.71531C0.634589 10.1599 0.0938649 11.4663 0.857413 12.2306L9.517 20.8902C10.2835 21.6566 11.5253 21.6566 12.291 20.8902L18.3697 14.8116C19.0998 14.0814 20.3489 14.5982 20.3489 15.6317V20.0221C20.3489 21.3126 21.9094 21.9593 22.8225 21.0462L31.4262 12.4425C32.2688 11.5999 31.6729 10.1599 30.4812 10.1599Z" fill="white"/>
<path d="M33.543 10.1599H35.5818V18.3579L41.2322 10.1599H42.8667V18.3579L48.5178 10.1599H50.8839L43.1084 21.3119L40.8308 21.3112V14.1308L35.8242 21.3119H33.543V10.1599Z" fill="white"/>
</g>
</g>
</g>
<defs>
<clipPath id="clip0_4688_458">
<rect width="93" height="30" fill="white" transform="translate(0.5 0.159973)"/>
</clipPath>
<clipPath id="clip1_4688_458">
<rect width="93" height="26" fill="white" transform="translate(0.5 2.15997)"/>
</clipPath>
</defs>
</svg>
