<svg width="94" height="31" viewBox="0 0 94 31" fill="none" xmlns="http://www.w3.org/2000/svg">
<g clip-path="url(#clip0_4688_119)">
<g clip-path="url(#clip1_4688_119)">
<mask id="mask0_4688_119" style="mask-type:luminance" maskUnits="userSpaceOnUse" x="0" y="2" width="94" height="27">
<path d="M93.5 2.15997H0.5V28.16H93.5V2.15997Z" fill="white"/>
</mask>
<g mask="url(#mask0_4688_119)">
<path d="M38.4486 11.4185C38.4486 11.8315 38.938 12.0365 39.4334 12.0365C39.896 12.0365 40.3854 11.8315 40.3854 11.4705C40.3854 10.8958 39.6931 10.8698 39.2394 10.8438C38.1024 10.7745 36.9653 10.3355 36.9653 9.08217C36.9653 7.82881 38.1113 7.11261 39.3827 7.11261C40.5824 7.11261 41.8 7.77394 41.7732 9.08217H40.2541C40.2452 8.6692 39.8453 8.49881 39.4095 8.49881C39.0454 8.49881 38.565 8.59411 38.565 9.0504C38.565 9.45471 38.9201 9.55001 39.517 9.61066C40.8421 9.72329 41.997 10.0236 41.997 11.4849C41.997 12.7499 40.7257 13.4112 39.4573 13.4112C38.1889 13.4112 36.8818 12.7758 36.9086 11.4243H38.4545L38.4486 11.4185Z" fill="white"/>
<path d="M48.4858 7.23126H49.0647V13.267H47.4382V10.4888L46.1132 11.8288H45.9281L44.6031 10.4888V13.267H42.9766V7.23126H43.5555L46.0266 9.83616L48.4888 7.23126H48.4858Z" fill="white"/>
<path d="M51.6753 12.519L51.3202 13.2669H49.6221V13.0532L52.4752 7.19073H53.2213L56.0475 13.0532V13.2669H54.3673L54.0032 12.519H51.6753ZM52.2006 11.2021H53.4899L52.8422 9.74943L52.2036 11.2021H52.2006Z" fill="white"/>
<path d="M61.8906 13.0361V13.2585H60.1656L59.1002 11.3755H58.2466V13.2585H56.6201V7.23999C57.5453 7.23999 58.4406 7.23133 59.3568 7.23999C60.858 7.23999 61.5951 8.3143 61.5951 9.37128C61.5862 10.0586 61.2847 10.7199 60.67 11.1243L61.8876 13.0332L61.8906 13.0361ZM59.3508 10.0962C59.8045 10.0962 60.0253 9.71783 60.0253 9.33951C60.0253 8.96119 59.8134 8.60887 59.3508 8.60887H58.2227V10.0962H59.3508Z" fill="white"/>
<path d="M62.21 8.62349V7.24884H66.8298V8.62349H65.3108V13.2673H63.738V8.62349H62.21Z" fill="white"/>
<path d="M68.9007 11.4185C68.9007 11.8315 69.3902 12.0365 69.8856 12.0365C70.3481 12.0365 70.8376 11.8315 70.8376 11.4705C70.8376 10.8958 70.1452 10.8698 69.6916 10.8438C68.5545 10.7745 67.4175 10.3355 67.4175 9.08217C67.4175 7.82881 68.5635 7.11261 69.8348 7.11261C71.0346 7.11261 72.2522 7.77394 72.2253 9.08217H70.7063C70.6973 8.6692 70.2974 8.49881 69.8617 8.49881C69.4976 8.49881 69.0171 8.59411 69.0171 9.0504C69.0171 9.45471 69.3722 9.55001 69.9691 9.61066C71.2942 9.72329 72.4492 10.0236 72.4492 11.4849C72.4492 12.7499 71.1778 13.4112 69.9094 13.4112C68.6411 13.4112 67.3339 12.7758 67.3608 11.4243H68.9067L68.9007 11.4185Z" fill="white"/>
<path d="M76.281 13.3796C74.6366 13.3796 73.0996 12.3486 73.0996 10.2578C73.0996 8.16691 74.6903 7.12726 76.3078 7.12726C77.9254 7.12726 79.4803 8.17557 79.4803 10.2578C79.4803 12.0974 78.1641 13.3796 76.281 13.3796ZM76.2899 11.8923C77.0629 11.8923 77.8538 11.3321 77.8538 10.2578C77.8538 9.18346 77.0808 8.6232 76.3078 8.6232C75.5349 8.6232 74.7261 9.15746 74.7261 10.2578C74.7261 11.3581 75.4901 11.8923 76.2899 11.8923Z" fill="white"/>
<path d="M84.1005 11.3237H82.1099V13.2673H80.4834V7.24884H84.3661V8.61482H82.1099V9.94616H84.1005V11.3208V11.3237Z" fill="white"/>
<path d="M84.8379 8.62349V7.24884H89.4578V8.62349H87.9387V13.2673H86.3659V8.62349H84.8379Z" fill="white"/>
<path d="M40.09 16.6428C41.3076 16.6428 42.4984 17.1944 42.8536 18.4478H42.1254C41.7971 17.5785 41.0241 17.2955 40.09 17.2955C38.6426 17.2955 37.7353 18.3611 37.7353 19.7271C37.7353 21.0931 38.6426 22.1588 40.09 22.1588C41.3703 22.1588 42.2835 21.4974 42.3999 20.1892H40.1885V19.5798H43.0863C43.1132 20.1314 43.0505 20.6628 42.8476 21.1451C42.385 22.2541 41.3464 22.8288 40.093 22.8288C38.3352 22.8288 36.9922 21.5898 36.9922 19.7242C36.9922 17.8586 38.359 16.6371 40.093 16.6371L40.09 16.6428Z" fill="white"/>
<path d="M44.8713 21.2611L44.1431 22.7484H43.3701V22.6531L46.268 16.7039H46.6052L49.4762 22.6531V22.7484H48.7122L47.984 21.2611H44.8743H44.8713ZM45.119 20.6431H47.7303L46.4232 17.8331L45.116 20.6431H45.119Z" fill="white"/>
<path d="M55.7965 16.721H56.08V22.7481H55.3339V18.4076L53.2896 21.1251H53.1732L51.1289 18.4076V22.7481H50.3828V16.721H50.6753L53.2329 20.0826L55.7906 16.721H55.7965Z" fill="white"/>
<path d="M60.1332 22.1707V22.7454H57.2354V22.1707H58.3097V17.2959H57.307V16.7298H60.0616V17.2959H59.0588V22.1707H60.1332Z" fill="white"/>
<path d="M61.9635 18.2L62.0262 19.8519V22.7485H61.2891V16.7127H61.5457L65.5985 21.2699L65.518 19.5429V16.7243H66.2641V22.76H66.0253L61.9665 18.2029L61.9635 18.2Z" fill="white"/>
<path d="M70.632 16.6428C71.8496 16.6428 73.0404 17.1944 73.3955 18.4478H72.6674C72.3391 17.5785 71.5661 17.2955 70.632 17.2955C69.1846 17.2955 68.2773 18.3611 68.2773 19.7271C68.2773 21.0931 69.1846 22.1588 70.632 22.1588C71.9123 22.1588 72.8255 21.4974 72.9419 20.1892H70.7305V19.5798H73.6283C73.6552 20.1314 73.5925 20.6628 73.3896 21.1451C72.927 22.2541 71.8884 22.8288 70.635 22.8288C68.8772 22.8288 67.5342 21.5898 67.5342 19.7242C67.5342 17.8586 68.901 16.6371 70.635 16.6371L70.632 16.6428Z" fill="white"/>
<path d="M16.7017 13.7809C15.7012 13.3745 14.9461 12.4588 14.9461 11.3399C14.9461 9.90362 16.1495 8.73907 17.6338 8.73907C18.0043 8.73907 18.3582 8.80301 18.6768 8.9423C20.8265 9.88535 27.1671 12.9406 27.1671 12.9406C28.2572 13.5503 28.9298 14.676 28.9298 15.8954V20.1403C28.9298 21.0879 28.4083 21.9625 27.5588 22.4374L18.2261 27.429C17.3789 27.9017 16.3336 27.9017 15.4865 27.429L6.1986 22.1428C5.97679 22.0287 5.82812 21.8049 5.82812 21.5446C5.82812 21.3984 5.87768 21.2614 5.95791 21.1495L5.93903 21.1769C6.63987 20.1494 7.89052 19.5215 9.245 19.6539C9.77121 19.7041 10.2644 19.8571 10.6844 20.1083C11.5717 20.6403 14.1225 22.4077 16.7937 22.4077C19.2762 22.4077 20.8737 21.0605 20.8737 21.0605C21.7775 20.3823 22.3603 19.0785 22.3603 17.8865V17.8911C22.3603 16.7699 21.65 15.8109 20.6401 15.4113L16.7017 13.7786V13.7809Z" fill="#F0013A"/>
<path d="M15.4798 11.2394C15.4798 11.2394 15.4798 11.246 15.4775 11.255C15.4775 11.2505 15.4775 11.246 15.4798 11.2416C15.4798 11.2416 15.4798 11.2394 15.4798 11.2371V11.2394Z" fill="url(#paint0_linear_4688_119)"/>
<path d="M15.4418 11.2164C15.4418 11.2164 15.4418 11.2231 15.4395 11.232C15.4395 11.2275 15.4395 11.2231 15.4418 11.2186C15.4418 11.2186 15.4418 11.2164 15.4418 11.2142V11.2164Z" fill="url(#paint1_linear_4688_119)"/>
<path d="M18.2237 27.4269C17.3766 27.8996 16.3312 27.8996 15.4841 27.4269L6.1986 22.1431C5.97679 22.0289 5.82812 21.8051 5.82812 21.5448C5.82812 21.3987 5.87768 21.2617 5.95791 21.1498L5.93903 21.1772C6.63987 20.1496 7.89052 19.5217 9.245 19.6541C9.77121 19.7044 10.2644 19.8573 10.6844 20.1085C11.5717 20.6406 14.1225 22.4079 16.7937 22.4079C19.2762 22.4079 20.8737 21.0607 20.8737 21.0607C21.7775 20.3825 22.3603 19.0787 22.3603 17.8867V17.8913C22.3603 16.7701 21.65 15.8111 20.6401 15.4115L16.7017 13.7788C15.7012 13.3724 14.9461 12.4567 14.9461 11.3378C14.9461 10.614 15.2505 9.96092 15.7413 9.49054C15.3354 9.88329 15.0853 10.4313 15.0853 11.0296C15.0853 11.9635 15.6941 12.7604 16.5483 13.0687L22.1338 15.1147C24.2575 15.8842 25.7701 17.8685 25.7701 20.193C25.7701 22.2344 24.6044 24.0132 22.8794 24.938L18.2237 27.4246V27.4269Z" fill="url(#paint2_linear_4688_119)"/>
<path d="M27.5119 7.41472C27.7172 7.54716 27.8517 7.77321 27.8517 8.02896C27.8517 8.12943 27.8305 8.22533 27.7928 8.31439C27.3468 9.42642 26.3722 9.91964 26.3439 9.93334C25.643 10.2781 24.8077 10.3147 24.0738 10.0726C23.8355 9.99499 23.583 9.8694 23.3801 9.72555C22.6486 9.20949 20.034 7.48779 17.4359 7.48779C14.9936 7.48779 13.4197 8.76879 13.4197 8.76879C12.5702 9.38303 12.0133 10.5407 11.9638 11.6299L11.959 11.8583C11.959 12.9224 12.6599 13.8358 13.6533 14.2148L17.5752 15.7721C18.5592 16.1603 19.3048 17.028 19.3048 18.0921C19.3048 19.4576 18.1203 20.5627 16.6596 20.5627C16.2962 20.5627 15.9446 20.5011 15.6331 20.3709C13.5165 19.4758 7.275 16.5713 7.275 16.5713C6.20369 15.9936 5.54297 14.9227 5.54297 13.765V9.8009C5.54297 8.85328 6.06447 7.97872 6.91397 7.50377L16.2467 2.51448C17.0938 2.04181 18.1391 2.04181 18.9863 2.51448L27.5119 7.41472Z" fill="#E90531"/>
<path d="M27.5119 7.41472C27.7172 7.54716 27.8517 7.77321 27.8517 8.02896C27.8517 8.12943 27.8305 8.22533 27.7928 8.31439C27.3468 9.42642 26.3722 9.91964 26.3439 9.93334C25.643 10.2781 24.8077 10.3147 24.0738 10.0726C23.8355 9.99499 23.583 9.8694 23.3801 9.72555C22.6486 9.20949 20.034 7.48779 17.4359 7.48779C14.9936 7.48779 13.4197 8.76879 13.4197 8.76879C12.5702 9.38303 12.0133 10.5407 11.9638 11.6299L11.959 11.8583C11.959 12.9224 12.6599 13.8358 13.6533 14.2148L17.5752 15.7721C18.5592 16.1603 19.3048 17.028 19.3048 18.0921C19.3048 19.4576 18.1203 20.5627 16.6596 20.5627C16.2962 20.5627 15.9446 20.5011 15.6331 20.3709C13.5165 19.4758 7.275 16.5713 7.275 16.5713C6.20369 15.9936 5.54297 14.9227 5.54297 13.765V9.8009C5.54297 8.85328 6.06447 7.97872 6.91397 7.50377L16.2467 2.51448C17.0938 2.04181 18.1391 2.04181 18.9863 2.51448L27.5119 7.41472Z" fill="url(#paint3_linear_4688_119)"/>
<path d="M27.7715 8.36696C27.2665 9.16616 26.358 9.70048 25.3198 9.70048C24.659 9.70048 24.0502 9.48127 23.5665 9.11821C21.7094 7.75043 19.2199 6.6795 16.6761 6.6795H16.6714C12.9572 6.6795 9.84473 10.0476 9.84473 13.6417C9.84473 15.7585 11.2039 18.1515 12.8982 19.163C12.8982 19.163 12.8982 19.163 12.9006 19.163C13.9955 19.6586 14.9984 20.1061 15.6331 20.3756C15.9446 20.508 16.2962 20.5674 16.6596 20.5674C18.1203 20.5674 19.3048 19.4599 19.3048 18.0967C19.3048 17.2335 18.8305 16.4983 18.1203 16.0462C18.0636 16.0142 18.0094 15.9822 17.9551 15.9525C17.8395 15.8886 17.7167 15.8315 17.594 15.7836L16.5746 15.3817L13.6557 14.2149C12.6622 13.8358 11.9614 12.9293 11.9614 11.8629L11.9661 11.6346C12.0157 10.5454 12.5726 9.38765 13.4221 8.77341C13.4221 8.77341 14.996 7.4924 17.4383 7.4924C17.8442 7.4924 18.25 7.5335 18.6512 7.60657C20.8103 7.99932 22.7736 9.29403 23.3919 9.73017C23.5948 9.87402 23.8473 9.99733 24.0856 10.0773C24.2225 10.1229 24.3617 10.1572 24.5033 10.1823C25.1215 10.2919 25.7775 10.2143 26.3462 9.93567C26.3722 9.92197 27.3208 9.44474 27.7739 8.36467L27.7715 8.36696Z" fill="url(#paint4_linear_4688_119)"/>
<path d="M27.7715 8.36696C27.2665 9.16616 26.358 9.70048 25.3198 9.70048C24.659 9.70048 24.0502 9.48127 23.5665 9.11821C21.7094 7.75043 19.2199 6.6795 16.6761 6.6795H16.6714C12.9572 6.6795 9.84473 10.0476 9.84473 13.6417C9.84473 15.7585 11.2039 18.1515 12.8982 19.163C12.8982 19.163 12.8982 19.163 12.9006 19.163C13.9955 19.6586 14.9984 20.1061 15.6331 20.3756C15.9446 20.508 16.2962 20.5674 16.6596 20.5674C18.1203 20.5674 19.3048 19.4599 19.3048 18.0967C19.3048 17.2335 18.8305 16.4983 18.1203 16.0462C18.0636 16.0142 18.0094 15.9822 17.9551 15.9525C17.8395 15.8886 17.7167 15.8315 17.594 15.7836L16.5746 15.3817L13.6557 14.2149C12.6622 13.8358 11.9614 12.9293 11.9614 11.8629L11.9661 11.6346C12.0157 10.5454 12.5726 9.38765 13.4221 8.77341C13.4221 8.77341 14.996 7.4924 17.4383 7.4924C17.8442 7.4924 18.25 7.5335 18.6512 7.60657C20.8103 7.99932 22.7736 9.29403 23.3919 9.73017C23.5948 9.87402 23.8473 9.99733 24.0856 10.0773C24.2225 10.1229 24.3617 10.1572 24.5033 10.1823C25.1215 10.2919 25.7775 10.2143 26.3462 9.93567C26.3722 9.92197 27.3208 9.44474 27.7739 8.36467L27.7715 8.36696Z" fill="url(#paint5_linear_4688_119)"/>
<path d="M27.7715 8.36696C27.2665 9.16616 26.358 9.70048 25.3198 9.70048C24.659 9.70048 24.0502 9.48127 23.5665 9.11821C21.7094 7.75043 19.2199 6.6795 16.6761 6.6795H16.6714C12.9572 6.6795 9.84473 10.0476 9.84473 13.6417C9.84473 15.7585 11.2039 18.1515 12.8982 19.163C12.8982 19.163 12.8982 19.163 12.9006 19.163C13.9955 19.6586 14.9984 20.1061 15.6331 20.3756C15.9446 20.508 16.2962 20.5674 16.6596 20.5674C18.1203 20.5674 19.3048 19.4599 19.3048 18.0967C19.3048 17.2335 18.8305 16.4983 18.1203 16.0462C18.0636 16.0142 18.0094 15.9822 17.9551 15.9525C17.8395 15.8886 17.7167 15.8315 17.594 15.7836L16.5746 15.3817L13.6557 14.2149C12.6622 13.8358 11.9614 12.9293 11.9614 11.8629L11.9661 11.6346C12.0157 10.5454 12.5726 9.38765 13.4221 8.77341C13.4221 8.77341 14.996 7.4924 17.4383 7.4924C17.8442 7.4924 18.25 7.5335 18.6512 7.60657C20.8103 7.99932 22.7736 9.29403 23.3919 9.73017C23.5948 9.87402 23.8473 9.99733 24.0856 10.0773C24.2225 10.1229 24.3617 10.1572 24.5033 10.1823C25.1215 10.2919 25.7775 10.2143 26.3462 9.93567C26.3722 9.92197 27.3208 9.44474 27.7739 8.36467L27.7715 8.36696Z" fill="url(#paint6_linear_4688_119)"/>
</g>
</g>
</g>
<defs>
<linearGradient id="paint0_linear_4688_119" x1="16.4773" y1="22.5438" x2="15.5321" y2="11.0799" gradientUnits="userSpaceOnUse">
<stop stop-color="#067993" stop-opacity="0"/>
<stop offset="0.34" stop-color="#096675" stop-opacity="0.23"/>
<stop offset="0.91" stop-color="#133325" stop-opacity="0.84"/>
<stop offset="1" stop-color="#152B17" stop-opacity="0.95"/>
</linearGradient>
<linearGradient id="paint1_linear_4688_119" x1="16.4393" y1="22.5208" x2="15.494" y2="11.0569" gradientUnits="userSpaceOnUse">
<stop stop-color="#067993" stop-opacity="0"/>
<stop offset="0.34" stop-color="#096675" stop-opacity="0.23"/>
<stop offset="0.91" stop-color="#133325" stop-opacity="0.84"/>
<stop offset="1" stop-color="#152B17" stop-opacity="0.95"/>
</linearGradient>
<linearGradient id="paint2_linear_4688_119" x1="9.32995" y1="31.3841" x2="17.8521" y2="17.5643" gradientUnits="userSpaceOnUse">
<stop stop-color="#F0002F" stop-opacity="0"/>
<stop offset="0.46" stop-color="#EA042D" stop-opacity="0.9"/>
<stop offset="0.59" stop-color="#DC0426" stop-opacity="0.92"/>
<stop offset="0.82" stop-color="#B80513" stop-opacity="0.96"/>
<stop offset="1" stop-color="#940701"/>
</linearGradient>
<linearGradient id="paint3_linear_4688_119" x1="16.6974" y1="-0.716577" x2="16.6974" y2="22.4671" gradientUnits="userSpaceOnUse">
<stop stop-color="#E90531" stop-opacity="0"/>
<stop offset="0.51" stop-color="#E7042B" stop-opacity="0"/>
<stop offset="0.64" stop-color="#D30420" stop-opacity="0.24"/>
<stop offset="0.93" stop-color="#A10607" stop-opacity="0.84"/>
<stop offset="1" stop-color="#940701"/>
</linearGradient>
<linearGradient id="paint4_linear_4688_119" x1="11.3361" y1="24.2619" x2="19.4068" y2="8.03933" gradientUnits="userSpaceOnUse">
<stop stop-color="#F0002F" stop-opacity="0"/>
<stop offset="0.31" stop-color="#EA042D" stop-opacity="0.9"/>
<stop offset="0.51" stop-color="#E7042B" stop-opacity="0.94"/>
<stop offset="0.77" stop-color="#BC0515" stop-opacity="0.97"/>
<stop offset="1" stop-color="#940701"/>
</linearGradient>
<linearGradient id="paint5_linear_4688_119" x1="18.906" y1="30.9045" x2="18.8221" y2="12.4178" gradientUnits="userSpaceOnUse">
<stop stop-color="#F0002F" stop-opacity="0"/>
<stop offset="0.46" stop-color="#EA042D" stop-opacity="0.9"/>
<stop offset="0.59" stop-color="#DC0426" stop-opacity="0.92"/>
<stop offset="0.82" stop-color="#B80513" stop-opacity="0.96"/>
<stop offset="1" stop-color="#940701"/>
</linearGradient>
<linearGradient id="paint6_linear_4688_119" x1="17.6436" y1="12.3447" x2="1.40138" y2="3.20789" gradientUnits="userSpaceOnUse">
<stop stop-color="#F0002F" stop-opacity="0"/>
<stop offset="0.51" stop-color="#E7042B" stop-opacity="0"/>
<stop offset="0.66" stop-color="#C70724" stop-opacity="0.29"/>
<stop offset="1" stop-color="#7A0F14"/>
</linearGradient>
<clipPath id="clip0_4688_119">
<rect width="93" height="30" fill="white" transform="translate(0.5 0.159973)"/>
</clipPath>
<clipPath id="clip1_4688_119">
<rect width="93" height="26" fill="white" transform="translate(0.5 2.15997)"/>
</clipPath>
</defs>
</svg>
